<?xml version="1.0" encoding="utf-8"?>
<!-- Generator: Adobe Illustrator 16.0.0, SVG Export Plug-In . SVG Version: 6.00 Build 0)  -->
<!DOCTYPE svg PUBLIC "-//W3C//DTD SVG 1.1//EN" "http://www.w3.org/Graphics/SVG/1.1/DTD/svg11.dtd">
<svg version="1.1" id="Layer_1" xmlns="http://www.w3.org/2000/svg" xmlns:xlink="http://www.w3.org/1999/xlink" x="0px" y="0px"
	 width="1400px" height="600px" viewBox="0 0 1400 600" enable-background="new 0 0 1400 600" xml:space="preserve">
<g>
	<g>
		<g>
			<g>
				<defs>
					<rect id="SVGID_1_" x="0" width="1400" height="600"/>
				</defs>
				<clipPath id="SVGID_2_">
					<use xlink:href="#SVGID_1_"  overflow="visible"/>
				</clipPath>
				<g clip-path="url(#SVGID_2_)">
					<g>
						<circle fill="#FFDA8F" cx="470.035" cy="562.707" r="5.396"/>
						<circle fill="#FFDA8F" cx="522.41" cy="572.082" r="5.396"/>
						<circle fill="#FFDA8F" cx="592.088" cy="543.282" r="5.396"/>
					</g>
					<g>
						<path d="M470.035,570.801c4.465,0,8.096-3.631,8.096-8.094s-3.633-8.094-8.096-8.094s-8.094,3.631-8.094,8.094
							S465.573,570.801,470.035,570.801z M470.035,560.01c1.488,0,2.698,1.209,2.698,2.697s-1.21,2.697-2.698,2.697
							c-1.486,0-2.695-1.209-2.695-2.697S468.549,560.01,470.035,560.01z"/>
						<path d="M522.41,580.176c4.462,0,8.096-3.631,8.096-8.094s-3.634-8.094-8.096-8.094c-4.463,0-8.094,3.631-8.094,8.094
							S517.948,580.176,522.41,580.176z M522.41,569.385c1.487,0,2.697,1.209,2.697,2.697s-1.21,2.697-2.697,2.697
							c-1.486,0-2.696-1.209-2.696-2.697S520.924,569.385,522.41,569.385z"/>
						<path d="M592.088,551.376c4.463,0,8.094-3.631,8.094-8.093c0-4.463-3.631-8.094-8.094-8.094s-8.096,3.631-8.096,8.094
							C583.992,547.745,587.625,551.376,592.088,551.376z M592.088,540.584c1.485,0,2.695,1.211,2.695,2.699
							c0,1.481-1.21,2.697-2.695,2.697c-1.488,0-2.698-1.216-2.698-2.697C589.39,541.795,590.601,540.584,592.088,540.584z"/>
						<circle cx="573.992" cy="564.326" r="2.698"/>
						<circle cx="689.418" cy="551.336" r="2.698"/>
						<circle cx="441.343" cy="462" r="2.698"/>
						<circle cx="417.995" cy="452.663" r="2.698"/>
						<circle cx="680.243" cy="567.793" r="2.698"/>
						<circle cx="502.178" cy="543.282" r="2.698"/>
					</g>
				</g>
			</g>
			<g>
				<defs>
					<rect id="SVGID_3_" x="0" width="1400" height="600"/>
				</defs>
				<clipPath id="SVGID_4_">
					<use xlink:href="#SVGID_3_"  overflow="visible"/>
				</clipPath>
				<g clip-path="url(#SVGID_4_)">
					<g>
						<circle fill="#FFDA8F" cx="977.656" cy="431.878" r="5.396"/>
						<circle fill="#FFDA8F" cx="1030.031" cy="501.253" r="5.396"/>
						<circle fill="#FFDA8F" cx="1069.707" cy="392.454" r="5.396"/>
					</g>
					<g>
						<path d="M977.656,439.973c4.464,0,8.095-3.631,8.095-8.094s-3.632-8.094-8.095-8.094s-8.094,3.631-8.094,8.094
							S973.193,439.973,977.656,439.973z M977.656,429.182c1.488,0,2.698,1.209,2.698,2.697s-1.21,2.697-2.698,2.697
							c-1.486,0-2.695-1.209-2.695-2.697S976.168,429.182,977.656,429.182z"/>
						<path d="M1030.031,509.348c4.462,0,8.095-3.631,8.095-8.094s-3.633-8.094-8.095-8.094c-4.463,0-8.094,3.631-8.094,8.094
							S1025.568,509.348,1030.031,509.348z M1030.031,498.557c1.487,0,2.697,1.209,2.697,2.697s-1.21,2.697-2.697,2.697
							s-2.696-1.209-2.696-2.697S1028.543,498.557,1030.031,498.557z"/>
						<path d="M1069.707,400.548c4.463,0,8.094-3.631,8.094-8.093c0-4.463-3.631-8.094-8.094-8.094
							c-4.464,0-8.096,3.631-8.096,8.094C1061.613,396.917,1065.243,400.548,1069.707,400.548z M1069.707,389.756
							c1.485,0,2.695,1.211,2.695,2.699c0,1.482-1.21,2.697-2.695,2.697c-1.488,0-2.698-1.215-2.698-2.697
							C1067.009,390.967,1068.22,389.756,1069.707,389.756z"/>
						<circle cx="1051.613" cy="433.498" r="2.698"/>
						<circle cx="1167.036" cy="300.508" r="2.698"/>
						<circle cx="948.962" cy="331.172" r="2.698"/>
						<circle cx="925.615" cy="321.835" r="2.698"/>
						<circle cx="1157.864" cy="316.965" r="2.698"/>
						<circle cx="1009.797" cy="412.454" r="2.698"/>
					</g>
				</g>
			</g>
		</g>
	</g>
	<g>
		<g>
			<g>
				<defs>
					<rect id="SVGID_5_" x="0" width="1400" height="600"/>
				</defs>
				<clipPath id="SVGID_6_">
					<use xlink:href="#SVGID_5_"  overflow="visible"/>
				</clipPath>
				<g clip-path="url(#SVGID_6_)">
					<g>
						<circle fill="#FFDA8F" cx="30.082" cy="581.43" r="5.396"/>
						<circle fill="#FFDA8F" cx="351.065" cy="484.366" r="5.396"/>
						<circle fill="#FFDA8F" cx="24.686" cy="380.269" r="5.396"/>
						<circle fill="#FFDA8F" cx="54.362" cy="351.47" r="5.396"/>
					</g>
					<g>
						<circle cx="255.251" cy="575.226" r="2.698"/>
						<path d="M30.082,589.523c4.463,0,8.093-3.636,8.093-8.099s-3.63-8.094-8.093-8.094s-8.096,3.631-8.096,8.094
							S25.619,589.523,30.082,589.523z M30.082,578.731c1.485,0,2.696,1.21,2.696,2.693c0,1.487-1.21,2.697-2.696,2.697
							c-1.488,0-2.698-1.21-2.698-2.697C27.384,579.941,28.594,578.731,30.082,578.731z"/>
						<path d="M351.065,492.46c4.463,0,8.094-3.631,8.094-8.094s-3.631-8.094-8.094-8.094c-4.465,0-8.096,3.631-8.096,8.094
							S346.603,492.46,351.065,492.46z M351.065,481.669c1.485,0,2.695,1.209,2.695,2.697c0,1.483-1.21,2.696-2.695,2.696
							c-1.488,0-2.698-1.213-2.698-2.696C348.365,482.878,349.575,481.669,351.065,481.669z"/>
						<path d="M24.686,388.363c4.462,0,8.094-3.631,8.094-8.094s-3.631-8.099-8.094-8.099s-8.093,3.636-8.093,8.099
							S20.223,388.363,24.686,388.363z M24.686,377.572c1.488,0,2.698,1.209,2.698,2.697c0,1.483-1.21,2.692-2.698,2.692
							c-1.486,0-2.698-1.209-2.698-2.692C21.988,378.781,23.198,377.572,24.686,377.572z"/>
						<path d="M54.362,359.562c4.465,0,8.096-3.631,8.096-8.092c0-4.468-3.631-8.099-8.096-8.099c-4.463,0-8.093,3.631-8.093,8.097
							C46.269,355.934,49.899,359.562,54.362,359.562z M54.362,348.771c1.487,0,2.698,1.211,2.698,2.699
							c0,1.481-1.21,2.692-2.698,2.692c-1.486,0-2.696-1.211-2.696-2.692C51.664,349.982,52.875,348.771,54.362,348.771z"/>
						<circle cx="285.198" cy="576.844" r="2.698"/>
						<circle cx="46.269" cy="372.513" r="2.698"/>
						<circle cx="967.531" cy="567.236" r="2.698"/>
						<circle cx="36.556" cy="406.236" r="2.698"/>
						<circle cx="15.513" cy="419.996" r="2.698"/>
						<circle cx="958.36" cy="583.693" r="2.698"/>
						<circle cx="36.152" cy="551.189" r="2.698"/>
						<circle cx="24.011" cy="561.171" r="2.698"/>
						<circle cx="50.865" cy="582.751" r="2.698"/>
						<circle cx="963.969" cy="474.595" r="2.698"/>
					</g>
				</g>
			</g>
		</g>
	</g>
	<g>
		<g>
			<g>
				<defs>
					<rect id="SVGID_7_" x="0" width="1400" height="600"/>
				</defs>
				<clipPath id="SVGID_8_">
					<use xlink:href="#SVGID_7_"  overflow="visible"/>
				</clipPath>
				<g clip-path="url(#SVGID_8_)">
					<g>
						<circle fill="#FFDA8F" cx="1348.812" cy="421.644" r="5.396"/>
						<circle fill="#FFDA8F" cx="1369.045" cy="397.902" r="5.396"/>
						<circle fill="#FFDA8F" cx="1378.488" cy="476.262" r="5.396"/>
					</g>
					<g>
						<circle cx="1316.977" cy="394.665" r="2.698"/>
						<path d="M1348.812,429.737c4.463,0,8.093-3.631,8.093-8.099c0-4.463-3.63-8.094-8.093-8.094c-4.466,0-8.097,3.631-8.097,8.094
							C1340.718,426.106,1344.349,429.737,1348.812,429.737z M1348.812,418.945c1.484,0,2.695,1.21,2.695,2.693
							c0,1.487-1.212,2.697-2.695,2.697c-1.487,0-2.698-1.21-2.698-2.697C1346.113,420.155,1347.323,418.945,1348.812,418.945z"/>
						<path d="M1369.045,405.996c4.463,0,8.094-3.631,8.094-8.094s-3.631-8.094-8.094-8.094s-8.096,3.631-8.096,8.094
							S1364.582,405.996,1369.045,405.996z M1369.045,395.205c1.486,0,2.696,1.209,2.696,2.697c0,1.483-1.21,2.692-2.696,2.692
							c-1.488,0-2.697-1.209-2.697-2.692C1366.348,396.414,1367.557,395.205,1369.045,395.205z"/>
						<path d="M1378.488,484.355c4.463,0,8.095-3.636,8.095-8.098c0-4.463-3.632-8.094-8.095-8.094s-8.094,3.631-8.094,8.094
							S1374.025,484.355,1378.488,484.355z M1378.488,473.562c1.484,0,2.697,1.212,2.697,2.695c0,1.486-1.213,2.697-2.697,2.697
							c-1.487,0-2.698-1.211-2.698-2.697C1375.788,474.774,1377,473.562,1378.488,473.562z"/>
						<circle cx="1346.923" cy="396.284" r="2.698"/>
						<circle cx="1096.07" cy="482.965" r="2.698"/>
						<circle cx="1372.822" cy="423.532" r="2.698"/>
						<circle cx="1383.885" cy="507.291" r="2.698"/>
						<circle cx="1392.244" cy="447.003" r="2.698"/>
						<circle cx="1363.649" cy="439.989" r="2.698"/>
						<circle cx="1306.5" cy="437.291" r="2.698"/>
						<circle cx="1336.671" cy="449.971" r="2.698"/>
						<circle cx="1325.879" cy="466.428" r="2.698"/>
						<circle cx="1381.186" cy="378.478" r="2.698"/>
					</g>
				</g>
			</g>
		</g>
	</g>
</g>
<g>
	<g>
		<defs>
			<rect id="SVGID_9_" x="0" width="1400" height="600"/>
		</defs>
		<clipPath id="SVGID_10_">
			<use xlink:href="#SVGID_9_"  overflow="visible"/>
		</clipPath>
		<g clip-path="url(#SVGID_10_)">
			<g>
				<path fill="#FEC9A3" d="M400.661,414.084l17.531-15.108c1.996-1.723,5.009-1.5,6.731,0.497c0.085,0.099,0.166,0.199,0.241,0.304
					l0,0c1.475,2.014,1.148,4.823-0.749,6.445l-18.397,18.313c-1.63,1.623-3.776,2.626-6.068,2.834l-40.708,3.716l-1.795-19.668
					l7.4-7.406c1.088-1.09,2.525-1.764,4.059-1.903l21.394-1.952c2.263-0.207,4.264,1.46,4.471,3.725l0,0
					c0.207,2.263-1.46,4.264-3.724,4.471l-10.654,0.972c-1.811,0.166-3.144,1.766-2.979,3.577l0,0
					c0.165,1.811,1.766,3.145,3.578,2.979L400.661,414.084L400.661,414.084z"/>
				
					<rect x="340.534" y="410.535" transform="matrix(0.9959 -0.0909 0.0909 0.9959 -37.1534 33.5437)" fill="#4398D1" width="18.054" height="27.981"/>
				<circle fill="#E5E5E5" cx="349.16" cy="428.7" r="3.292"/>
				<path fill="#D1D1D1" d="M339.463,394.878l95.064-8.676l0,0l0,0c0.496,5.432-3.505,10.236-8.937,10.731l-75.397,6.881
					C344.763,404.311,339.959,400.31,339.463,394.878L339.463,394.878L339.463,394.878z"/>
				<path fill="#E5E5E5" d="M427.971,386.8l-81.952,7.479l-0.15-1.639c-2.064-22.63,14.607-42.651,37.237-44.716l0,0
					c22.63-2.065,42.651,14.606,44.716,37.237L427.971,386.8z"/>
				<g>
					<path fill="#FFFFFF" d="M357.829,373.383l-2.9-1.554c0.821-1.525,1.75-2.991,2.779-4.386l2.649,1.953
						C359.422,370.664,358.577,371.996,357.829,373.383z"/>
					<path fill="#FFFFFF" d="M362.24,367.059l-2.461-2.184c6.098-6.9,14.604-11.206,23.776-12.032l0.299,3.276
						C375.517,356.873,367.784,360.786,362.24,367.059z"/>
				</g>
				<polygon fill="#D1D1D1" points="387.126,337.642 377.292,338.539 377.591,341.818 380.869,341.519 381.467,348.075 
					384.744,347.775 384.147,341.22 387.425,340.92 				"/>
				<path fill="#C9C9C9" d="M410.845,388.363c-8.701,5.476-18.141,9.674-28.033,12.476l42.779-3.904
					c5.432-0.496,9.432-5.3,8.937-10.731L410.845,388.363z"/>
				<path fill="#DEDEDE" d="M427.821,385.162c-1.019-11.28-6.654-21.636-15.573-28.616c-9.999,17.458-29.917,29.159-44.248,35.728
					l59.971-5.474L427.821,385.162z"/>
				<g>
					<path fill="#F7BB8F" d="M425.449,400.253c-0.084-0.163-0.18-0.319-0.284-0.471c-1.554-2.129-4.54-2.595-6.669-1.041
						c-0.104,0.075-0.205,0.155-0.303,0.241l-2.516,2.162L425.449,400.253L425.449,400.253z"/>
					<path fill="#F7BB8F" d="M394.614,403.067c-0.564-1.873-2.366-3.091-4.313-2.912l-21.394,1.952
						c-1.534,0.141-2.97,0.813-4.059,1.902l-1.949,1.952L394.614,403.067L394.614,403.067z"/>
				</g>
				<path d="M354.078,428.251c-0.249-2.716-2.65-4.715-5.367-4.469c-2.715,0.248-4.715,2.651-4.468,5.366
					c0.248,2.716,2.65,4.717,5.366,4.469C352.325,433.37,354.326,430.968,354.078,428.251L354.078,428.251z M347.522,428.849
					c-0.083-0.904,0.584-1.706,1.489-1.787c0.905-0.083,1.707,0.584,1.789,1.488c0.083,0.905-0.584,1.707-1.489,1.79
					C348.405,430.422,347.604,429.755,347.522,428.849z"/>
				<path d="M434.378,384.563l-4.917,0.448c-2.117-22.881-21.911-40.019-44.862-38.835l-0.452-4.957l3.278-0.3l-0.299-3.278
					l-9.834,0.897l0.299,3.279l3.278-0.3l0.453,4.959c-22.785,2.99-39.152,23.427-37.091,46.313l-4.917,0.449
					c-0.904,0.083-1.571,0.885-1.489,1.789c0.584,6.333,6.187,10.997,12.52,10.427l11.811-1.079l-4.016,4.019
					c-0.294-0.19-0.641-0.279-0.99-0.257l-17.979,1.642l0.299,3.277l16.34-1.49l2.244,24.586l-16.341,1.49l0.299,3.279l17.979-1.641
					c0.905-0.083,1.571-0.885,1.489-1.789l-0.449-4.917l39.07-3.566c2.673-0.246,5.176-1.416,7.08-3.309l18.308-18.229
					c2.536-2.189,2.972-5.956,1.005-8.669c-0.079-0.109-0.183-0.196-0.271-0.305c6.112-0.818,10.493-6.304,9.944-12.446
					C436.084,385.148,435.282,384.481,434.378,384.563z M383.256,349.563c21.715-1.956,40.92,14.036,42.926,35.748l-78.674,7.18
					C345.552,370.774,361.544,351.57,383.256,349.563z M423.256,405.058l-18.39,18.312c-1.361,1.352-3.153,2.188-5.064,2.361
					l-39.07,3.566l-1.575-17.261l6.863-6.855c0.816-0.818,1.892-1.326,3.042-1.435l21.388-1.952c1.357-0.124,2.56,0.878,2.683,2.234
					c0.124,1.356-0.877,2.559-2.233,2.683l-10.654,0.973c-2.716,0.247-4.716,2.649-4.468,5.365c0.248,2.717,2.649,4.717,5.366,4.469
					l19.668-1.795c0.341-0.03,0.666-0.169,0.924-0.393l17.531-15.105c1.307-1.13,3.281-0.986,4.411,0.32
					c0.055,0.065,0.11,0.134,0.161,0.203C424.807,402.112,424.552,403.996,423.256,405.058z M395.612,401.323l19.391-1.771
					l-15.015,12.939l-19.144,1.748c-0.905,0.082-1.707-0.586-1.79-1.49c-0.083-0.904,0.585-1.706,1.49-1.788l10.654-0.973
					c3.168-0.289,5.501-3.092,5.212-6.26C396.328,402.877,396.055,402.055,395.612,401.323z M425.441,395.295l-75.396,6.881
					c-3.895,0.351-7.498-2.081-8.63-5.823l91.459-8.348C432.438,391.892,429.334,394.935,425.441,395.295z"/>
				<path d="M354.928,371.826l2.9,1.554c0.747-1.391,1.592-2.726,2.527-3.997l-2.649-1.952
					C356.677,368.828,355.749,370.297,354.928,371.826z"/>
				<path d="M362.24,367.059c5.544-6.272,13.277-10.186,21.614-10.939l-0.299-3.276c-9.171,0.826-17.678,5.132-23.776,12.032
					L362.24,367.059z"/>
			</g>
			<g>
				<g>
					<path fill="#E94444" d="M216.78,582.503L89.37,619.115c-5.492,1.578-11.225-1.597-12.803-7.087l-0.562-1.958
						c-1.578-5.492,1.594-11.226,7.086-12.804l127.41-36.611c5.492-1.578,11.223,1.595,12.802,7.088l0.563,1.958
						C225.445,575.192,222.273,580.925,216.78,582.503z"/>
				</g>
				<g>
					<path fill="#9E5528" d="M205.558,543.451l-127.41,36.611c-5.492,1.578-11.224-1.595-12.802-7.088l-0.562-1.958
						c-1.578-5.49,1.594-11.224,7.086-12.802l127.409-36.611c5.492-1.578,11.225,1.596,12.803,7.086l0.562,1.959
						C214.223,536.142,211.051,541.873,205.558,543.451z"/>
				</g>
				<g>
					<path fill="#D83131" d="M223.303,567.741l0.563,1.959c1.578,5.493-1.594,11.225-7.087,12.804l-5.818,1.672
						c5.493-1.578,8.664-7.31,7.085-12.804l-0.562-1.958c-1.578-5.49-7.308-8.665-12.801-7.087l5.819-1.672
						C215.995,559.077,221.726,562.252,223.303,567.741z"/>
				</g>
				<g>
					<path fill="#904D24" d="M212.082,528.69l0.562,1.959c1.579,5.492-1.593,11.223-7.087,12.801l-5.818,1.672
						c5.493-1.578,8.665-7.307,7.087-12.8l-0.563-1.959c-1.578-5.49-7.308-8.665-12.801-7.086l5.818-1.672
						C204.774,520.026,210.505,523.201,212.082,528.69z"/>
				</g>
				<g>
					<path fill="#FE9738" d="M119.974,485.617c-49.461,14.991-58.407,46.729-59.417,63.966c-0.346,5.906,5.292,10.363,10.979,8.729
						l64.041-18.402l64.04-18.402c5.729-1.646,8.072-8.458,4.609-13.31C194.181,494.123,169.75,472.091,119.974,485.617
						L119.974,485.617z"/>
				</g>
				<g>
					<path fill="#FE860A" d="M199.615,521.509l-0.708,0.203c1.31-2.705,1.204-6.065-0.746-8.802
						c-10.046-14.078-34.479-36.108-84.253-22.581c-12.771,3.868-22.843,8.856-30.771,14.423
						c8.662-7.45,20.553-14.201,36.835-19.136c49.775-13.524,74.206,8.506,84.252,22.581
						C207.686,513.049,205.343,519.863,199.615,521.509z"/>
				</g>
				<g>
					<path fill="#FE9738" d="M216.78,582.503l-63.703,18.306L89.37,619.115c0,0,1.703,22.479,29.104,23.641
						c4.694,0.199,9.356-0.421,13.84-1.709l29.857-8.58l29.855-8.579c4.483-1.288,8.765-3.238,12.637-5.898
						C227.271,602.457,216.78,582.503,216.78,582.503z"/>
				</g>
				<g>
					<path fill="#FE860A" d="M204.665,617.986c-3.873,2.664-8.152,4.613-12.637,5.901l-6.75,1.939
						c4.487-1.289,8.767-3.239,12.64-5.903c22.603-15.529,12.111-35.48,12.111-35.48l6.75-1.939
						C216.781,582.504,227.27,602.456,204.665,617.986z"/>
				</g>
				<g>
					<path fill="#BBEC6C" d="M211.873,564.549c1.427,4.966-3.568,9.315-8.312,7.266c-1.949-0.844-4.104-1.334-7.057-0.486
						c-7.996,2.298-6.176,8.632-14.172,10.93s-9.816-4.036-17.812-1.738c-7.996,2.299-6.176,8.632-14.171,10.93
						c-7.996,2.298-9.815-4.035-17.812-1.738c-7.997,2.298-6.177,8.632-14.172,10.93c-7.997,2.299-9.816-4.035-17.812-1.737
						c-2.95,0.848-4.517,2.408-5.721,4.155c-2.931,4.256-9.473,3.224-10.899-1.742l-3.376-11.75l127.939-36.766L211.873,564.549
						L211.873,564.549z"/>
				</g>
				<g>
					<path fill="#A2E62E" d="M208.498,552.799l3.377,11.751c1.335,4.646-2.954,8.752-7.394,7.58c1.394-1.458,2.081-3.597,1.43-5.866
						l-3.376-11.751L208.498,552.799z"/>
				</g>
				<g>
					<path fill="#FEE45A" d="M77.916,580.131l2.729,9.502l13.716-3.94c2.854-0.82,5.832,0.829,6.651,3.682l7.864,27.366
						c1.048,3.647,4.854,5.756,8.503,4.708c3.647-1.048,5.755-4.855,4.707-8.504l-7.864-27.367c-0.82-2.854,0.829-5.83,3.682-6.65
						l90.617-26.039l-2.729-9.502L77.916,580.131z"/>
				</g>
				<g>
					<path fill="#FEDF30" d="M199.828,545.097l5.964-1.714l2.729,9.503l-5.964,1.714L199.828,545.097z"/>
				</g>
				<g>
					<path d="M106.038,514.355c0.79-0.229,1.434-0.869,1.622-1.729l0.902-4.12c0.273-1.248-0.517-2.479-1.764-2.754
						c-1.248-0.273-2.479,0.517-2.753,1.764l-0.903,4.12c-0.272,1.248,0.518,2.48,1.765,2.754
						C105.295,514.476,105.681,514.458,106.038,514.355z"/>
					<path d="M128.167,505.854l-1.165-4.054c-0.354-1.228-1.634-1.937-2.861-1.584c-1.228,0.354-1.937,1.634-1.584,2.861
						l1.165,4.054c0.354,1.228,1.633,1.937,2.861,1.583C127.81,508.362,128.519,507.081,128.167,505.854z"/>
					<path d="M147.032,502.544c0.378-0.109,0.733-0.317,1.025-0.621c0.885-0.921,0.856-2.384-0.064-3.269l-3.042-2.924
						c-0.921-0.886-2.385-0.854-3.27,0.065c-0.885,0.921-0.855,2.385,0.065,3.271l3.042,2.922
						C145.406,502.58,146.266,502.764,147.032,502.544L147.032,502.544z"/>
					<path d="M214.867,530.01l-0.563-1.958c-1.192-4.149-4.338-7.219-8.151-8.501c0.575-0.819,1.047-1.728,1.39-2.711
						c1.17-3.354,0.633-7.086-1.436-9.984c-4.996-6.999-13.947-16.573-28.23-22.438c-16.468-6.759-36.153-7.107-58.509-1.032
						c-0.021,0.007-0.042,0.014-0.064,0.02c-10.021,3.037-18.988,6.946-26.653,11.621c-1.091,0.664-1.436,2.087-0.771,3.177
						c0.665,1.091,2.087,1.436,3.178,0.771c7.324-4.466,15.921-8.211,25.556-11.132c48.279-13.106,71.931,7.969,81.729,21.7
						c1.216,1.703,1.519,3.81,0.833,5.777c-0.68,1.95-2.211,3.396-4.2,3.968L70.897,556.091c-1.996,0.573-4.07,0.158-5.694-1.143
						c-1.604-1.283-2.456-3.189-2.336-5.229c0.723-12.334,5.413-30.115,23.653-44.771c0.995-0.8,1.154-2.255,0.354-3.251
						c-0.8-0.995-2.255-1.153-3.25-0.354c-8.881,7.139-15.573,15.686-19.891,25.404c-3.176,7.15-5.021,14.79-5.484,22.702
						c-0.208,3.559,1.271,6.88,4.062,9.111c0.813,0.651,1.707,1.171,2.647,1.561c-2.555,3.112-3.591,7.385-2.398,11.537l0.562,1.958
						c1.687,5.869,7.271,9.579,13.136,9.128l3.769,13.282c-5.181,2.74-7.927,8.832-6.245,14.685l0.562,1.958
						c1.685,5.864,7.266,9.573,13.125,9.127c0.523,2.381,1.69,6.154,4.252,9.989c6.905,10.337,18.305,12.93,26.652,13.282
						c4.813,0.203,9.719-0.4,14.577-1.797l59.714-17.158c4.858-1.396,9.336-3.488,13.307-6.218
						c6.887-4.73,15.172-12.979,15.536-25.404c0.135-4.609-0.879-8.429-1.7-10.724c5.203-2.73,7.964-8.839,6.278-14.703
						l-0.562-1.958c-1.686-5.867-7.271-9.573-13.135-9.122l-3.812-13.264C213.789,541.988,216.554,535.879,214.867,530.01z
						 M78.791,611.39l-0.562-1.958c-0.97-3.377,0.387-6.875,3.111-8.791l0.372,1.312c0.906,3.153,3.478,5.439,6.712,5.97
						c3.253,0.53,6.438-0.831,8.312-3.553c0.876-1.273,2.023-2.548,4.455-3.247c0.255-0.073,0.5-0.133,0.739-0.186l3.229,11.235
						l-16.429,4.721C84.474,618.117,80.014,615.646,78.791,611.39L78.791,611.39z M162.349,568.56l44.589-12.812l2.713,9.439
						c0.414,1.44-0.009,2.889-1.13,3.873c-1.135,0.998-2.646,1.233-4.041,0.632c-1.98-0.856-4.75-1.696-8.613-0.587
						c-4.771,1.371-6.661,4.012-8.328,6.342c-1.464,2.046-2.62,3.661-5.846,4.588c-3.225,0.927-5.062,0.171-7.388-0.785
						c-2.649-1.089-5.652-2.324-10.424-0.953s-6.743,4.128-8.328,6.342c-1.464,2.045-2.62,3.661-5.844,4.587
						c-3.226,0.928-5.062,0.173-7.39-0.783c-2.518-1.035-5.651-2.324-10.423-0.953c-4.771,1.371-6.661,4.011-8.328,6.341
						c-1.043,1.459-1.937,2.695-3.528,3.622l-3.597-12.513c-0.466-1.623,0.476-3.323,2.099-3.79l33.385-9.595
						c1.228-0.353,1.937-1.633,1.584-2.859c-0.353-1.229-1.633-1.937-2.86-1.583l-33.386,9.594
						c-4.074,1.171-6.437,5.437-5.266,9.511l7.863,27.367c0.695,2.417-0.705,4.949-3.122,5.644
						c-2.418,0.694-4.949-0.708-5.644-3.124l-7.864-27.366c-1.171-4.074-5.438-6.437-9.511-5.266l-11.494,3.304l-1.454-5.06
						l123.433-35.47l1.454,5.06l-44.59,12.812c-1.227,0.353-1.937,1.633-1.583,2.859
						C159.841,568.203,161.122,568.912,162.349,568.56L162.349,568.56z M95,587.913c1.624-0.467,3.324,0.475,3.791,2.098l1.86,6.477
						c-0.24,0.058-0.485,0.119-0.736,0.19c-3.863,1.11-5.764,3.291-6.987,5.067c-0.863,1.253-2.268,1.854-3.76,1.611
						c-1.474-0.24-2.6-1.242-3.013-2.682l-2.713-9.44L95,587.913z M216.888,594.354c-0.247,8.419-4.799,15.729-13.532,21.729
						c-3.56,2.446-7.585,4.324-11.965,5.583l-59.714,17.159c-4.38,1.259-8.788,1.804-13.104,1.62
						c-20.735-0.878-25.538-14.604-26.605-19.671l14.469-4.157l0.219,0.762c1.399,4.868,6.497,7.69,11.364,6.292
						c4.867-1.397,7.689-6.498,6.291-11.365l-0.219-0.762l91.359-26.253C216.121,587.153,217.004,590.398,216.888,594.354z
						 M221.082,568.382l0.562,1.958c1.224,4.257-1.246,8.717-5.504,9.94l-93.328,26.817l-1.469-5.11
						c3.109-1.456,4.625-3.564,5.986-5.469c1.464-2.046,2.62-3.661,5.844-4.588c3.225-0.927,5.062-0.172,7.389,0.785
						c2.519,1.035,5.652,2.324,10.424,0.953s6.66-4.012,8.327-6.341c1.464-2.047,2.62-3.662,5.845-4.589
						c3.225-0.928,5.062-0.171,7.389,0.786c2.648,1.089,5.651,2.323,10.424,0.952c4.771-1.37,6.661-4.013,8.328-6.342
						c1.464-2.046,2.62-3.662,5.845-4.589c2.433-0.698,4.081-0.227,5.5,0.387c3.033,1.312,6.456,0.775,8.932-1.4
						c2.461-2.163,3.426-5.469,2.52-8.622l-0.384-1.337C217.065,562.725,220.105,564.981,221.082,568.382z M204.92,541.229
						L77.51,577.841c-4.258,1.225-8.717-1.245-9.941-5.504l-0.562-1.958c-1.223-4.257,1.245-8.717,5.503-9.939l127.41-36.612
						c4.258-1.224,8.718,1.245,9.94,5.503l0.562,1.958C211.647,535.545,209.177,540.005,204.92,541.229z"/>
				</g>
			</g>
			<g>
				<g>
					<path fill="#ECB880" d="M1294.37,180.197l-64.082,177.266c-3.111,7.635,4.366,15.312,12.061,12.381l176.678-63.34
						l-46.459-72.06L1294.37,180.197z"/>
					<path fill="#E9A761" d="M1252.191,366.314l-9.841,3.528c-7.694,2.935-15.173-4.747-12.061-12.381l64.082-177.266l8.704,6.039
						l-60.403,167.1C1239.906,360.117,1245.508,366.941,1252.191,366.314z"/>
					<path fill="#E9A761" d="M1405.767,307.549c-1.193-1.195-2.221-2.596-3.028-4.184c-23.539-46.292-60.398-83.229-106.597-106.816
						c-8.104-4.138-11.327-14.076-7.198-22.197c4.13-8.122,14.048-11.351,22.152-7.213c25.926,13.237,49.503,30.402,70.078,51.02
						c20.572,20.617,37.703,44.243,50.914,70.222c4.129,8.121,0.906,18.059-7.197,22.198
						C1418.369,313.906,1410.675,312.467,1405.767,307.549L1405.767,307.549z"/>
					<path fill="#E69642" d="M1421.062,311.969c-5.522,1.264-11.322-0.438-15.297-4.42c-1.193-1.193-2.221-2.598-3.026-4.182
						c-23.54-46.292-60.398-83.231-106.597-106.817c-8.106-4.14-11.326-14.075-7.198-22.198c0.438-0.863,0.94-1.668,1.502-2.415
						c0.004,6.006,3.29,11.789,8.998,14.707c46.197,23.586,92.139,66.303,115.679,112.595
						C1415.63,300.238,1418.617,306.883,1421.062,311.969L1421.062,311.969z"/>
					<circle fill="#DC4955" cx="1326.567" cy="303.201" r="22.289"/>
					<path fill="#D82F3C" d="M1345.908,314.289c-3.847,6.695-11.069,11.201-19.343,11.201c-12.309,0-22.289-9.98-22.289-22.289
						c0-8.271,4.507-15.495,11.202-19.342c-1.874,3.266-2.947,7.051-2.947,11.087c0,12.308,9.98,22.291,22.29,22.291
						C1338.86,317.236,1342.645,316.162,1345.908,314.289z"/>
					<path fill="#DC4955" d="M1277.448,325.49c0,12.309-9.979,22.291-22.289,22.291c-7.441,0-14.029-3.646-18.08-9.25l12.404-34.6
						c1.812-0.479,3.715-0.73,5.676-0.73C1267.467,303.201,1277.448,313.182,1277.448,325.49z"/>
					<path fill="#DC4955" d="M1309.231,233.444c0,12.309-9.98,22.289-22.289,22.289c-2.973,0-5.804-0.582-8.396-1.634
						c-3.363-1.371-6.315-3.538-8.627-6.267l13.139-36.34c1.259-0.223,2.56-0.338,3.885-0.338c2.354,0,4.618,0.363,6.748,1.044
						C1302.699,215.055,1309.231,223.488,1309.231,233.444z"/>
					<path fill="#D82F3C" d="M1260.557,303.861l-15.078,41.711c-3.335-1.605-6.204-4.021-8.363-6.992l12.541-34.689
						c1.758-0.455,3.604-0.688,5.502-0.688C1257.02,303.201,1258.826,303.428,1260.557,303.861L1260.557,303.861z"/>
					<path fill="#D82F3C" d="M1293.69,212.199l-15.145,41.9c-3.363-1.371-6.315-3.538-8.627-6.267l13.139-36.34
						c1.259-0.223,2.56-0.338,3.885-0.338C1289.293,211.155,1291.56,211.518,1293.69,212.199z"/>
					<path fill="#B7E546" d="M1320.732,247.266c1.871-5.386,7.823-8.422,10.774-9.631c0.979-0.402,2.1-0.001,2.604,0.932
						c1.536,2.843,4.297,9.086,2.421,14.488c-1.87,5.386-7.822,8.422-10.773,9.632c-0.98,0.401-2.101,0-2.604-0.933
						C1321.615,258.912,1318.856,252.667,1320.732,247.266L1320.732,247.266z"/>
					<path fill="#ABD641" d="M1337.138,249.868c-0.059,1.073-0.248,2.146-0.607,3.187c-1.87,5.385-7.823,8.422-10.772,9.633
						c-0.981,0.401-2.101,0-2.604-0.933c-1.538-2.842-4.3-9.085-2.424-14.487c0.269-0.775,0.624-1.502,1.045-2.18
						c-0.276,4.996,2.271,10.011,3.41,11.981c0.301,0.522,0.937,0.748,1.5,0.536
						C1328.907,256.769,1334.397,254.339,1337.138,249.868L1337.138,249.868z"/>
					<path fill="#B7E546" d="M1356.507,285.264c-3.507-4.428-2.887-11.014-2.327-14.135c0.187-1.043,1.127-1.771,2.184-1.696
						c3.203,0.229,9.886,1.247,13.403,5.688c3.507,4.427,2.886,11.014,2.327,14.135c-0.188,1.043-1.126,1.771-2.185,1.696
						C1366.707,290.722,1360.025,289.706,1356.507,285.264z"/>
					<path fill="#ABD641" d="M1372.479,286.063c-0.075,1.17-0.198,2.117-0.384,3.199c-0.19,1.04-1.131,1.767-2.185,1.688
						c-4.208-0.337-8.648-1.389-11.948-4.178c-4.449-3.785-4.714-10.309-3.781-15.644c0.062-0.339,0.202-0.644,0.404-0.9
						c-0.1,3.208,0.403,7.125,2.745,10.08C1361.863,286.031,1371.637,286.072,1372.479,286.063z"/>
					<path fill="#B7E546" d="M1275.856,288.991c-2.15-5.453,0.648-11.847,2.038-14.481c0.386-0.729,1.249-1.072,2.024-0.788
						c2.821,1.035,9.344,3.954,11.504,9.432c2.15,5.452-0.648,11.847-2.038,14.479c-0.386,0.73-1.248,1.072-2.023,0.788
						C1284.537,297.386,1278.016,294.467,1275.856,288.991z"/>
					<path fill="#ABD641" d="M1291.024,293.869c-0.457,1.309-1.004,2.561-1.644,3.769c-0.385,0.723-1.233,1.062-2.001,0.793
						c-4.588-1.737-9.566-4.642-11.524-9.44c-0.619-1.568-0.83-3.216-0.776-4.825c0.113-3.397,1.295-6.742,2.836-9.691
						c0.156-0.276,0.385-0.496,0.645-0.64c-0.979,2.996-1.572,6.785-0.227,10.203
						C1280.927,290.612,1289.806,293.501,1291.024,293.869L1291.024,293.869z"/>
				</g>
				<g>
					<path d="M1434.848,286.977c-13.357-26.269-30.679-50.158-51.483-71.006c-20.805-20.847-44.646-38.204-70.86-51.589
						c-4.653-2.375-9.952-2.795-14.922-1.181c-4.977,1.616-9.022,5.078-11.397,9.747c-3.067,6.035-2.704,12.933,0.359,18.448
						l-6.858,19.128c-0.001,0.004-0.003,0.007-0.004,0.011l-3.073,8.573l-30.037,83.772c-0.001,0.002-0.001,0.004-0.002,0.006
						l-3.343,9.324l-15.829,44.147c-1.88,4.683-0.86,9.822,2.668,13.433c3.542,3.64,8.719,4.728,13.357,2.957l58.87-21.117
						c1.608-0.577,2.445-2.35,1.869-3.959c-0.578-1.608-2.351-2.444-3.961-1.868l-58.897,21.127
						c-2.428,0.948-4.986,0.403-6.81-1.468c-1.822-1.86-2.321-4.416-1.338-6.832c0.018-0.041,0.032-0.082,0.047-0.123l5.056-14.096
						c4.608,4.106,10.623,6.465,16.899,6.465c13.997,0,25.386-11.39,25.386-25.387c0-13.996-11.388-25.384-25.386-25.384
						c-0.342,0-0.683,0.009-1.022,0.022l16.837-46.958c4.479,3.635,10.08,5.658,15.97,5.658c13.997,0,25.386-11.388,25.386-25.385
						c0-13.929-11.278-25.27-25.182-25.381l3.99-11.131c9.562,6.094,20.159,10.918,29.345,17.569
						c1.416,0.957,3.341,0.587,4.299-0.83c0.959-1.416,0.587-3.341-0.829-4.298c-8.404-5.687-17.287-10.93-26.399-15.582
						c-6.573-3.356-9.196-11.448-5.847-18.037c1.623-3.193,4.391-5.561,7.791-6.665c3.396-1.103,7.015-0.816,10.193,0.807
						c25.635,13.089,48.948,30.062,69.294,50.449c20.345,20.387,37.283,43.749,50.346,69.438c3.352,6.59,0.729,14.681-5.846,18.037
						c-6.483,3.416-14.805,0.615-17.983-5.857c-16.928-33.289-40.368-61.562-69.675-84.033c-1.355-1.04-3.3-0.783-4.341,0.573
						c-1.04,1.357-0.783,3.3,0.573,4.341c30.489,22.603,52.54,52.866,70.808,86.135l-89.062,31.946
						c-1.609,0.576-2.446,2.351-1.869,3.959c0.575,1.625,2.393,2.443,3.96,1.867l92.848-33.303c5.521,2.741,12.01,2.723,17.56-0.113
						C1435.906,308.43,1439.741,296.605,1434.848,286.977L1434.848,286.977z M1255.157,306.297c10.583,0,19.193,8.609,19.193,19.193
						s-8.61,19.195-19.193,19.195c-5.614,0-10.958-2.486-14.588-6.722l8.433-23.521l2.816-7.857
						C1252.913,306.395,1254.031,306.297,1255.157,306.297z M1286.942,214.25c10.583,0,19.193,8.609,19.193,19.193
						s-8.61,19.193-19.193,19.193c-5.201,0-10.109-2.08-13.71-5.762l8.27-23.066l3.388-9.451
						C1285.565,214.287,1286.25,214.25,1286.942,214.25L1286.942,214.25z"/>
					<path d="M1304.367,299.491c-1.695-0.056-3.132,1.304-3.178,3.011c-0.412,14.234,11.135,26.109,25.376,26.084
						c13.998,0,25.386-11.387,25.386-25.385s-11.388-25.385-25.386-25.385c-7.62,0-14.77,3.379-19.615,9.271
						c-1.086,1.32-0.896,3.271,0.426,4.357c1.32,1.087,3.271,0.896,4.356-0.425c3.665-4.455,9.071-7.011,14.833-7.011
						c10.584,0,19.193,8.609,19.193,19.193s-8.609,19.195-19.193,19.195c-10.77,0.018-19.502-8.965-19.186-19.729
						C1307.426,300.959,1306.076,299.536,1304.367,299.491L1304.367,299.491z"/>
					<path d="M1324.065,266.404c0.297,0,0.597-0.043,0.891-0.131c0.469-0.142,11.493-3.547,14.499-12.201
						c2.992-8.614-3.406-18.363-3.682-18.774c-0.755-1.133-2.163-1.638-3.467-1.247c-0.468,0.141-11.492,3.546-14.498,12.2
						c-2.993,8.614,3.407,18.363,3.681,18.774C1322.073,265.902,1323.049,266.404,1324.065,266.404L1324.065,266.404z
						 M1323.656,248.282c1.239-3.568,5.272-6.097,8.164-7.419c1.442,2.925,3.04,7.565,1.785,11.177
						c-1.239,3.568-5.272,6.097-8.164,7.419C1323.998,256.534,1322.402,251.893,1323.656,248.282L1323.656,248.282z"/>
					<path d="M1362.45,273.804c1.606,0.588,3.385-0.237,3.973-1.844c0.588-1.605-0.237-3.383-1.843-3.971
						c-4.932-1.805-9.875-1.72-10.084-1.717c-1.362,0.03-2.545,0.946-2.913,2.257c-0.132,0.468-3.155,11.521,2.495,18.656
						c5.455,6.753,15.711,6.91,17.698,6.925c1.361-0.029,2.544-0.944,2.913-2.256c0.054-0.192,1.319-4.767,0.812-9.837
						c-0.17-1.701-1.688-2.944-3.389-2.772c-1.701,0.17-2.942,1.688-2.772,3.389c0.19,1.907,0.047,3.76-0.148,5.152
						c-3.212-0.354-7.917-1.487-10.26-4.445c-2.313-2.922-2.291-7.615-1.862-10.735
						C1358.556,272.766,1360.531,273.101,1362.45,273.804L1362.45,273.804z"/>
					<path d="M1279.427,270.298c-1.312-0.367-2.709,0.167-3.442,1.315c-0.261,0.407-6.337,10.075-3.009,18.513
						c3.312,8.399,14.405,11.586,14.876,11.719c1.288,0.365,2.709-0.159,3.441-1.313c0.261-0.409,6.337-10.076,3.009-18.514
						C1290.989,273.618,1279.898,270.43,1279.427,270.298z M1287.225,295.034c-2.711-1.152-7.037-3.499-8.489-7.18
						c-1.358-3.442,0.012-7.896,1.318-10.744c2.711,1.152,7.037,3.499,8.489,7.179
						C1289.901,287.732,1288.531,292.185,1287.225,295.034z"/>
				</g>
			</g>
			<g>
				<path fill="#E2E2E2" d="M363.865,546.829c-1.376-3.959-4.142-7.244-7.73-9.281l-34.037-13.956
					c-1.34-0.549-2.876,0.019-3.539,1.305c-0.704,1.37-0.165,3.053,1.205,3.756l27.008,13.895c1.656,0.853,2.308,2.885,1.456,4.541
					l-6.166,11.984c-0.852,1.656-2.886,2.308-4.542,1.456l-27.008-13.895c-1.37-0.704-3.051-0.165-3.755,1.205
					c-0.663,1.287-0.23,2.866,0.996,3.638l31.146,19.576c3.745,1.735,8.025,2.074,12.047,0.893l7.76-2.461
					c3.587-1.138,7.484-0.726,10.753,1.139l83.364,47.926c4.059,2.294,9.555,0.08,11.687-4.063c2.133-4.145,0.735-9.9-3.489-11.869
					l-87.466-39.953c-3.417-1.577-6.019-4.508-7.179-8.086L363.865,546.829z"/>
				<path fill="#D8D6D4" d="M464.722,606.526c-0.058-0.13-0.117-0.258-0.181-0.385c-0.125-0.254-0.262-0.5-0.41-0.738
					c-0.075-0.117-0.152-0.235-0.233-0.352c-0.725-1.032-1.688-1.885-2.877-2.438l-87.466-39.953
					c-0.523-0.242-1.027-0.521-1.51-0.824c-0.305-0.189-0.604-0.389-0.89-0.603c-0.185-0.14-0.367-0.28-0.544-0.429
					c-0.712-0.589-1.361-1.247-1.937-1.967c-1.008-1.259-1.791-2.699-2.299-4.265l-2.51-7.746c-0.43-1.237-0.995-2.408-1.68-3.497
					c-0.274-0.436-0.566-0.856-0.876-1.265c-1.397-1.834-3.155-3.375-5.174-4.521L322.1,523.59c-0.168-0.067-0.339-0.119-0.51-0.154
					c-0.43-0.086-0.864-0.067-1.272,0.041c-0.163,0.046-0.323,0.104-0.476,0.177c-0.534,0.255-0.991,0.68-1.282,1.243
					c-0.704,1.369-0.165,3.051,1.205,3.755l27.008,13.894c0.518,0.269,0.938,0.649,1.244,1.1c0.122,0.179,0.226,0.368,0.312,0.567
					c0.084,0.197,0.151,0.404,0.197,0.615c0.069,0.315,0.092,0.645,0.067,0.971c-0.032,0.438-0.151,0.874-0.364,1.288l-1.91,3.716
					l2.478,1.017c3.59,2.037,6.354,5.321,7.731,9.281c0,0,0.026,0.082,0.076,0.232c1.311,4.033,4.741,6.946,8.896,7.797
					c0.003,0.002,0.008,0.002,0.013,0.003c0.083,0.019,0.165,0.037,0.246,0.057c0.122,0.027,0.243,0.057,0.364,0.087
					c0.085,0.021,0.169,0.044,0.253,0.067c0.126,0.035,0.252,0.071,0.377,0.109c0.073,0.021,0.146,0.044,0.219,0.067
					c0.19,0.062,0.382,0.13,0.57,0.2c0.04,0.017,0.079,0.03,0.119,0.046c0.156,0.062,0.312,0.125,0.467,0.192
					c0.064,0.027,0.128,0.057,0.192,0.085c0.136,0.062,0.272,0.125,0.407,0.191c0.058,0.028,0.117,0.057,0.175,0.087
					c0.188,0.095,0.375,0.193,0.559,0.299l65.975,37.929l18.246,8.334c1.24,0.579,2.236,1.484,2.973,2.581
					c0.593-0.019,1.188-0.101,1.772-0.244h0.001c0.384-0.094,0.763-0.214,1.135-0.356c0.011-0.005,0.021-0.009,0.032-0.013
					c0.365-0.145,0.725-0.311,1.072-0.5c0.013-0.006,0.024-0.013,0.037-0.021c0.159-0.086,0.315-0.179,0.469-0.274
					c0.019-0.012,0.035-0.021,0.053-0.031c0.167-0.104,0.329-0.214,0.486-0.329c0.003-0.001,0.006-0.003,0.01-0.004
					c0.146-0.108,0.291-0.22,0.434-0.335c0.029-0.022,0.058-0.047,0.086-0.071c0.141-0.117,0.279-0.236,0.413-0.361
					c0.003-0.004,0.006-0.005,0.009-0.007c0.136-0.128,0.269-0.261,0.397-0.397c0.028-0.03,0.058-0.062,0.087-0.095
					c0.103-0.109,0.203-0.225,0.301-0.342c0.025-0.029,0.05-0.06,0.076-0.09c0.115-0.143,0.226-0.287,0.332-0.437
					c0.021-0.028,0.041-0.059,0.062-0.087c0.085-0.125,0.168-0.25,0.247-0.379c0.027-0.041,0.055-0.085,0.079-0.128
					c0.094-0.158,0.187-0.316,0.271-0.479c1.133-2.203,1.27-4.859,0.516-7.162C464.936,607.053,464.835,606.787,464.722,606.526z"/>
				<path fill="#E2E2E2" d="M419.045,544.655c4.765-1.983,8.382-6.008,9.848-10.957l3.239-10.938
					c2.651-8.957,1.732-18.595-2.566-26.889c-0.703-1.357-1.832-2.379-3.153-2.96c-1.321-0.583-2.837-0.729-4.312-0.331
					c-9.022,2.426-16.756,8.251-21.576,16.254l-5.885,9.771c-2.663,4.421-3.191,9.807-1.44,14.661l2.923,7.6
					c1.351,3.511,1.173,7.427-0.49,10.801l-42.833,86.093c-2.045,4.188,0.491,9.541,4.758,11.421
					c4.265,1.881,9.929,0.141,11.639-4.194l34.629-89.708c1.369-3.504,4.139-6.277,7.642-7.651L419.045,544.655z"/>
				<path fill="#D8D6D4" d="M429.566,495.873c-0.703-1.357-1.832-2.379-3.153-2.96c-0.496-0.219-1.02-0.376-1.556-0.466
					c-0.538-0.09-1.091-0.112-1.646-0.062c-0.37,0.033-0.741,0.099-1.11,0.197c-0.324,0.088-0.647,0.181-0.968,0.276
					c-0.098,0.027-0.193,0.06-0.29,0.09c-0.229,0.068-0.456,0.143-0.684,0.217c-0.104,0.034-0.208,0.069-0.312,0.104
					c-0.234,0.08-0.468,0.163-0.702,0.247c-0.083,0.03-0.166,0.061-0.248,0.091c-0.318,0.117-0.634,0.238-0.948,0.365
					c2.324,6.978,2.48,14.546,0.367,21.684l-3.239,10.937c-1.152,3.889-3.632,7.206-6.952,9.411
					c-2.543,1.688-4.957,3.563-7.124,5.711c-2.013,1.995-3.984,3.977-3.984,4.075c0,0.028-0.001,0.058-0.001,0.085
					c-0.003,0.194-0.008,0.388-0.02,0.58c-0.001,0.039-0.006,0.078-0.008,0.118c-0.012,0.183-0.024,0.365-0.044,0.547
					c-0.006,0.051-0.013,0.102-0.019,0.152c-0.021,0.171-0.041,0.342-0.067,0.512c-0.01,0.062-0.022,0.125-0.033,0.188
					c-0.026,0.159-0.056,0.315-0.088,0.475c-0.015,0.076-0.035,0.149-0.052,0.227c-0.032,0.145-0.063,0.287-0.102,0.432
					c-0.023,0.09-0.051,0.178-0.075,0.269c-0.037,0.128-0.071,0.256-0.112,0.384c-0.032,0.105-0.071,0.211-0.107,0.315
					c-0.036,0.109-0.072,0.223-0.112,0.33c-0.049,0.131-0.104,0.261-0.155,0.39c-0.033,0.083-0.064,0.166-0.1,0.248
					c-0.092,0.212-0.188,0.422-0.29,0.63l-42.833,86.093c-2.045,4.188,0.491,9.541,4.758,11.421
					c4.265,1.881,9.929,0.141,11.639-4.194l34.629-89.708c1.369-3.504,4.139-6.277,7.642-7.651l7.58-2.971
					c4.765-1.983,8.382-6.008,9.847-10.957l3.239-10.937C434.783,513.805,433.865,504.167,429.566,495.873z"/>
				<path d="M412.221,549.557l7.58-2.971c0.013-0.007,0.026-0.012,0.041-0.017c5.364-2.233,9.388-6.709,11.039-12.281l3.238-10.938
					c2.819-9.521,1.856-19.616-2.713-28.433c-0.897-1.73-2.375-3.118-4.158-3.904s-3.804-0.938-5.688-0.434
					c-9.591,2.577-17.69,8.68-22.812,17.185l-5.885,9.771c-2.999,4.979-3.587,10.967-1.614,16.435
					c0.006,0.015,0.01,0.027,0.016,0.041l2.923,7.601c1.14,2.961,0.987,6.292-0.412,9.133l-42.839,86.105
					c-1.139,2.331-1.237,5.062-0.277,7.688c1.058,2.89,3.323,5.335,6.062,6.541c2.474,1.09,5.433,1.213,8.079,0.364
					c0.282-0.092,0.562-0.192,0.839-0.307c2.585-1.062,4.534-2.978,5.491-5.404l34.627-89.701
					C406.909,553.074,409.267,550.714,412.221,549.557z M401.891,554.531l-34.624,89.691c-0.534,1.354-1.673,2.448-3.206,3.079
					c-1.824,0.749-3.943,0.742-5.668-0.019c-1.729-0.764-3.162-2.32-3.839-4.172c-0.569-1.557-0.531-3.135,0.102-4.431l42.835-86.1
					c1.914-3.881,2.12-8.423,0.568-12.461l-2.917-7.578c-1.538-4.281-1.074-8.971,1.273-12.869l5.885-9.77
					c4.566-7.583,11.792-13.021,20.337-15.321c0.974-0.261,2.017-0.182,2.938,0.225c0.922,0.407,1.687,1.124,2.149,2.019
					c4.073,7.857,4.932,16.86,2.418,25.348l-3.239,10.938c-1.292,4.361-4.439,7.868-8.638,9.623l-7.561,2.962
					C406.679,547.275,403.467,550.492,401.891,554.531z"/>
				<path d="M461.882,600.729l-55.341-25.277c-1.041-0.479-2.271-0.019-2.747,1.021c-0.476,1.042-0.018,2.271,1.024,2.748
					l55.326,25.273c1.321,0.615,2.343,1.816,2.88,3.384c0.639,1.866,0.505,3.98-0.358,5.658c-0.862,1.677-2.501,3.017-4.394,3.582
					c-1.587,0.475-3.161,0.342-4.414-0.367l-51.602-29.665c-0.994-0.571-2.262-0.229-2.832,0.764s-0.229,2.262,0.765,2.83
					l51.614,29.672c2.259,1.277,4.979,1.54,7.657,0.739c0.068-0.021,0.138-0.043,0.208-0.063c2.859-0.917,5.349-2.995,6.684-5.594
					c1.37-2.66,1.592-5.986,0.595-8.896C466.04,603.891,464.246,601.831,461.882,600.729z"/>
				<path d="M338.028,572.933c4.232,1.964,9.028,2.318,13.503,1.001c0.016-0.004,0.028-0.009,0.042-0.013l7.762-2.462
					c3.024-0.961,6.341-0.608,9.092,0.96l4.617,2.652c0.526,0.304,1.13,0.351,1.667,0.178c0.474-0.152,0.896-0.475,1.163-0.939
					c0.571-0.992,0.229-2.261-0.764-2.832l-4.624-2.655c-3.759-2.145-8.28-2.622-12.405-1.314l-7.738,2.455
					c-3.463,1.015-7.17,0.751-10.454-0.736l-31.031-19.506c-0.317-0.197-0.427-0.601-0.255-0.935
					c0.117-0.229,0.312-0.318,0.418-0.353c0.104-0.033,0.314-0.073,0.545,0.044l27.009,13.896c2.669,1.373,5.958,0.318,7.332-2.352
					l1.633-3.175l-0.001-0.001l2.899-5.635c0,0,0.001-0.001,0-0.002l0.001-0.001l1.632-3.173c1.374-2.67,0.318-5.959-2.352-7.333
					l-27.009-13.895c-0.35-0.18-0.488-0.611-0.309-0.963c0.171-0.333,0.562-0.477,0.909-0.335l33.912,13.903
					c3.12,1.806,5.489,4.67,6.678,8.075l2.502,7.727c1.335,4.113,4.354,7.516,8.289,9.33l4.729,2.159
					c1.042,0.476,2.271,0.018,2.747-1.022c0.476-1.043,0.017-2.271-1.024-2.748l-4.72-2.155c-2.884-1.33-5.098-3.825-6.076-6.845
					l-2.51-7.742c-0.006-0.016-0.01-0.028-0.016-0.043c-1.53-4.406-4.607-8.103-8.666-10.403c-0.076-0.043-0.155-0.083-0.236-0.115
					l-34.038-13.956c-2.354-0.966-5.005,0.015-6.167,2.275c-1.228,2.384-0.285,5.32,2.099,6.546l27.008,13.896
					c0.637,0.326,0.89,1.111,0.562,1.748l-0.686,1.331l-30.101-15.483c-1.019-0.524-2.269-0.124-2.792,0.895
					c-0.524,1.02-0.123,2.27,0.895,2.792l30.102,15.483l-1.004,1.951l-30.102-15.484c-1.018-0.523-2.268-0.123-2.791,0.896
					s-0.124,2.269,0.896,2.791l30.1,15.483l-0.684,1.331c-0.328,0.638-1.112,0.89-1.75,0.562l-27.009-13.895
					c-1.154-0.594-2.472-0.703-3.708-0.307c-1.236,0.396-2.244,1.251-2.838,2.406c-1.163,2.261-0.417,4.985,1.735,6.34
					l31.146,19.576C337.869,572.854,337.948,572.896,338.028,572.933z"/>
			</g>
			<g>
				<path fill="#35E298" d="M905.352,586.448c-5.53,17.439-21.326,28.135-35.104,23.767l-14.698-4.66
					c-3.816-1.211-7.097-3.457-9.72-6.443c-7.583-8.613-8.86-21.901-5.274-33.21c2.627-8.283,8.055-14.724,14.36-18.015
					c3.627-1.896,6.9-4.713,9.613-8.167c1.956-2.487,3.62-5.3,4.928-8.339c0.509-1.186,0.965-2.407,1.362-3.658
					c3.51-11.07,13.538-17.855,22.281-15.083c4.373,1.387,7.631,4.91,9.355,9.472c1.726,4.563,1.918,10.16,0.164,15.695
					c-2.821,8.895-2.366,18.365,1.379,25.644c1.627,3.161,2.622,6.84,2.882,10.764C907.14,578.139,906.665,582.307,905.352,586.448z
					"/>
				<path fill="#1AB975" d="M874.79,565.694c-2.096,5.935-5.687,11.262-10.335,15.683l-18.625,17.734
					c-7.583-8.613-8.859-21.9-5.274-33.209c2.627-8.283,8.055-14.724,14.36-18.014c3.627-1.896,6.9-4.714,9.614-8.169
					c1.955-2.486,3.619-5.299,4.927-8.338c3.885,3.996,7.399,10.258,7.634,19.887C877.211,556.237,876.414,561.106,874.79,565.694z"
					/>
				<path fill="#AE583E" d="M891.986,583.411c-3.304,10.424-14.435,16.195-24.857,12.889c-10.426-3.305-16.196-14.435-12.891-24.859
					c3.305-10.423,14.435-16.195,24.86-12.889C889.521,561.856,895.293,572.986,891.986,583.411z"/>
				<path fill="#7C3F2C" d="M876.697,557.95c-17.316-3.209-29.858,16.234-19.891,30.71l7.65-7.283
					c4.647-4.421,8.239-9.748,10.334-15.683C875.676,563.186,876.319,560.595,876.697,557.95z"/>
				<path fill="#1ED688" d="M833.442,508.951c0.438-4.805,0.507-22.682-22.16-25.797c-0.661-0.09-1.225,0.478-1.133,1.138
					c0.743,5.38,4.691,25.706,21.94,25.868C832.786,510.167,833.376,509.646,833.442,508.951z"/>
				<path fill="#1AB975" d="M832.088,510.16c-17.247-0.162-21.196-20.485-21.939-25.868c-0.09-0.661,0.474-1.229,1.133-1.138
					c1.94,0.267,3.719,0.641,5.339,1.109c1.453,6.863,5.615,19.358,16.922,22.084c0.01,1.062-0.043,1.954-0.103,2.604
					C833.376,509.647,832.786,510.165,832.088,510.16z"/>
				<path fill="#C42D2D" d="M853.352,577.856l-21.62,20.584c-5.391,4.688-14.129,4.239-19.444-1.1
					c-2.723-2.738-6.574-3.96-10.381-3.292c-7.249,1.271-14.769-3.191-16.522-10.305l-5.811-29.284
					c-2.381-11.993,0.529-23.126,7.022-31.888c8.1-10.913,17.678-12.58,23.824-12.254c2.822,0.147,4.924,0.717,5.83,1.003
					c0.323,0.103,0.493,0.168,0.493,0.168c2.568,0.814,4.892,2.025,6.909,3.533c2.017,1.505,3.732,3.311,5.085,5.311
					c0.431,0.69,1.081,1.176,1.81,1.407c0.732,0.232,1.543,0.209,2.293-0.107c2.258-0.854,4.698-1.343,7.215-1.411
					c2.519-0.066,5.113,0.281,7.684,1.096c0,0,17.716,4.4,18.251,26.43C866.254,558.723,862.157,569.481,853.352,577.856z"/>
				<path fill="#F44545" d="M853.352,577.856l-21.62,20.584c-5.391,4.688-14.129,4.239-19.444-1.1
					c-2.723-2.738-6.574-3.96-10.381-3.292c-2.04,0.356-4.07,0.256-5.94-0.195c-0.038-0.241-3.334-27.646-4.175-34.631
					c-2.516-20.89,7.154-40.211,18.629-48.905c2.822,0.147,4.924,0.716,5.83,1.004c0.323,0.102,0.493,0.167,0.493,0.167
					c2.568,0.814,4.892,2.026,6.909,3.533c2.017,1.506,3.732,3.311,5.085,5.312c0.431,0.689,1.081,1.175,1.81,1.406
					c0.732,0.233,1.543,0.21,2.293-0.107c2.258-0.854,4.697-1.342,7.215-1.41c2.519-0.067,5.113,0.28,7.684,1.095
					c0,0,17.716,4.401,18.25,26.431C866.254,558.723,862.157,569.481,853.352,577.856z"/>
				<path fill="#1AB975" d="M789.756,564.519c-2.553,0.461-4.249,2.905-3.789,5.46c0.541,2.994,1.547,5.765,2.828,8.296
					l-14.411-6.401c-2.372-1.056-5.148,0.015-6.202,2.385c-1.053,2.372,0.016,5.148,2.387,6.201l14.411,6.402
					c-2.735,0.745-5.467,1.856-8.051,3.464c-2.204,1.371-2.88,4.268-1.51,6.471c1.371,2.205,4.267,2.881,6.47,1.511
					c7.017-4.362,17.106-3.986,25.04-1.754c3.147,0.889,6.228-1.644,5.953-4.91c-0.125-1.48-0.959-2.878-2.319-3.668
					c-0.132-0.077-13.243-7.997-15.349-19.665C794.754,565.755,792.311,564.059,789.756,564.519z"/>
				<path fill="#FFA90B" d="M891.317,628.985c-2.457,5.534-8.68,8.343-14.459,6.521c-33.124-10.433-9.973-3.141-63.287-19.934
					c-11.077-3.49-16.65-15.844-11.936-26.455c1.035-2.331,2.47-4.351,4.177-6.021c5.063-4.949,12.57-6.824,19.459-4.639
					c1.366,0.433,2.712,1.026,4.006,1.788c43.545,25.612,46.924,27.598,49.753,29.262l3.552,2.091l3.891,2.288
					c4.245,2.493,6.414,7.256,5.757,11.924C892.079,626.881,891.778,627.949,891.317,628.985z"/>
				<path fill="#FFB52D" d="M892.229,625.811c-2.941,2.059-6.766,2.753-10.41,1.603c-33.123-10.431-9.973-3.139-63.287-19.934
					c-10.362-3.266-15.907-14.287-12.72-24.383c5.063-4.949,12.569-6.824,19.459-4.64c0.741,0.235,1.473,0.517,2.193,0.846
					c0.612,0.279,1.22,0.595,1.812,0.942l1.775,1.043c45.994,27.057,4.992,2.937,47.978,28.219l3.552,2.092l3.891,2.288
					C890.717,616.381,892.886,621.144,892.229,625.811z"/>
				<path d="M887.507,612.125l-1.334-0.786c17.573-7.006,28.592-31.436,19.645-48.825c-3.445-6.688-3.911-15.693-1.248-24.088
					c3.859-12.172-1.006-24.614-10.85-27.734c-9.841-3.121-20.99,4.242-24.85,16.413c-0.876,2.767-2.068,5.388-3.513,7.784
					c-5.812-13.492-19.989-19.322-31.873-15.644l7.872-24.826c0.342-1.075-0.254-2.226-1.33-2.568
					c-1.075-0.339-2.226,0.257-2.568,1.332l-2.426,7.653c-2.49-12.347-12.19-18.515-24.811-19.888
					c-1.273-0.137-2.361,0.922-2.26,2.2c0.025,0.301,0.644,7.46,3.96,14.608c3.923,8.462,10.34,14.079,19.516,14.419l-1.851,5.833
					c-8.924-11.582-28.996-14.806-42.62,0.832c-0.742,0.854-0.65,2.143,0.2,2.885c0.852,0.741,2.141,0.652,2.883-0.199
					c12.47-14.308,30.124-10.187,36.98-0.09c1.395,2.205,4.171,3.077,6.567,2.083c13.004-4.896,29.87,4.379,30.351,24.263
					c0.254,10.708-3.61,20.594-12.678,29.218c-3.588,3.367-6.548,6.176-9.002,8.517c-11.246-6.428-12.667-7.924-16.804-9.137
					c-1.081-0.32-2.219,0.297-2.537,1.381c-0.32,1.084,0.294,2.223,1.383,2.539c0.712,0.21,1.503,0.5,2.316,0.874l-4.497,10.125
					c-0.459,1.03,0.007,2.239,1.039,2.697c1.036,0.46,2.242-0.01,2.699-1.037l4.347-9.79c7.223,4.246,11.922,7.011,17.521,10.306
					l-2.146,4.829c-0.457,1.032,0.008,2.239,1.039,2.698c1.037,0.459,2.242-0.01,2.698-1.038l1.956-4.403
					c1.115,0.657,26.774,15.747,27.097,15.938l-5.79,13.034c-0.459,1.032,0.006,2.24,1.038,2.699
					c1.036,0.46,2.241-0.011,2.699-1.039l5.6-12.607l3.508,2.065c4.351,2.556,6.065,7.892,4.013,12.503
					c-2.038,4.588-7.186,6.91-11.974,5.403l-19.96-6.287l2.725-6.131c0.458-1.03-0.007-2.239-1.039-2.697
					c-1.033-0.459-2.239,0.006-2.698,1.037l-2.911,6.556l-19.131-6.026l2.56-5.764c0.458-1.031-0.008-2.238-1.041-2.697
					c-1.027-0.459-2.237,0.006-2.696,1.038c-0.638,1.437-2.682,6.035-2.748,6.188l-9.158-2.885l4.456-10.032
					c0.457-1.03-0.008-2.239-1.039-2.699c-1.032-0.458-2.24,0.008-2.697,1.04l-4.646,10.456c-0.02-0.007-0.033-0.011-0.043-0.014
					l0,0c0,0-0.004-0.002-0.005-0.002c-0.004-0.001-0.007-0.002-0.011-0.003c0,0-0.001,0-0.002-0.001
					c-0.012-0.004-0.015-0.004-0.011-0.003c-0.125-0.04-0.737-0.234-3.229-1.018c-7.65-2.427-12.553-9.724-12.13-17.527
					c0.423-7.971,6.378-15.133,15.054-16.324c1.119-0.153,1.902-1.185,1.748-2.303c-0.153-1.119-1.185-1.903-2.304-1.749
					c-4.37,0.6-8.337,2.471-11.48,5.3c-3.321-3.219-6.851-7.743-7.812-13.063c-1.237-6.893-10.909-7.518-13.054-0.858l-2.586-13.037
					c-1.774-8.935-0.602-17.956,4.014-26.188c0.553-0.985,0.201-2.231-0.784-2.784s-2.229-0.202-2.782,0.785
					c-4.952,8.834-6.479,18.802-4.46,28.982l3.527,17.772l-5.886-2.614c-3.407-1.513-7.388,0.017-8.899,3.425
					c-1.509,3.397,0.023,7.391,3.423,8.898l9.746,4.33c-3.217,1.447-5.877,2.842-6.641,6.128
					c-1.357,5.804,5.021,10.427,10.127,7.256c4.205-2.614,9.697-3.312,14.935-2.968c0.022,9.09,5.877,17.54,15.009,20.436
					c2.971,0.937,59.742,18.817,63.329,19.947c7.372,2.322,15.175-1.772,17.498-9.1
					C895.717,622.122,893.156,615.445,887.507,612.125z M812.397,485.378c13.521,2.34,19.733,11.108,19.059,22.704
					C819.996,507.579,814.342,496.6,812.397,485.378z M881.458,608.565l-35.51-20.886c1.748-1.676,3.685-3.524,5.831-5.551
					c1.638,7.361,7.04,13.684,14.729,16.121c9.893,3.138,20.71-1.171,25.72-10.242c0.546-0.989,0.186-2.233-0.804-2.777
					c-0.991-0.547-2.231-0.188-2.777,0.801c-4.068,7.371-12.861,10.873-20.903,8.322c-7.121-2.257-11.825-8.614-12.345-15.646
					c5.192-5.135,8.809-11.155,10.805-17.633c12.431-5.261,25.834,4.793,24.592,17.995c-0.106,1.125,0.717,2.121,1.843,2.227
					c1.125,0.105,2.122-0.721,2.227-1.845c0.461-4.89-0.776-9.861-3.477-13.995c-5.136-7.85-14.834-11.628-24.027-9.101
					c0.975-5.326,0.965-11.205-0.347-16.516c2.445-3.371,4.408-7.263,5.752-11.501c2.852-8.992,11.363-16.4,19.716-13.751
					c8.261,2.618,11.077,13.484,8.188,22.599c-3.026,9.543-2.475,19.456,1.51,27.199c6.913,13.426-0.077,32.063-12.435,40.43
					C887.064,606.633,884.266,607.892,881.458,608.565z M798.293,592.973c-5.98-0.41-12.44,0.463-17.48,3.598
					c-1.244,0.771-2.885,0.388-3.656-0.854c-0.775-1.25-0.393-2.883,0.852-3.654c2.327-1.445,4.906-2.526,7.511-3.23
					c1.849-0.505,2.047-3.06,0.291-3.839c-1.628-0.724-13.179-5.855-14.411-6.402c-1.338-0.593-1.941-2.165-1.35-3.502
					c0.588-1.32,2.139-1.949,3.506-1.348c0.008,0.004,0.015,0.006,0.022,0.011c-0.004-0.001-0.008-0.005-0.011-0.005
					c0.008,0.004,0.024,0.01,0.044,0.019c0,0-0.003,0-0.004-0.002c0.021,0.011,0.037,0.017,0.045,0.02
					c-0.009-0.003-0.018-0.007-0.028-0.012c0.384,0.17,2.631,1.168,13.023,5.785c0.631,0.158,2.266,1.559,3.628,0.127
					c0.597-0.628,0.732-1.561,0.342-2.334c-1.28-2.529-2.166-5.131-2.637-7.733c-0.262-1.442,0.701-2.825,2.138-3.086l0.004,0.001
					c1.452-0.261,2.818,0.702,3.083,2.142c1.144,6.352,5.265,11.641,9.082,15.331C800.326,586.594,798.912,589.712,798.293,592.973z
					"/>
			</g>
			<g>
				<g>
					<g>
						<path fill="#F7F6F7" d="M164.074,290.247c-2.125-3.88-0.859-8.82,2.868-11.202c1.394-0.891,2.943-1.323,4.476-1.337
							c0.759-0.008,1.459-0.43,1.82-1.097c0.73-1.347,1.837-2.514,3.276-3.329c3.852-2.18,8.81-0.987,11.243,2.707
							c2.367,3.593,1.642,8.258-1.426,10.993c-0.648,0.577-0.809,1.525-0.36,2.269l9.666,16.054l-9.343,5.625l-9.666-16.056
							c-0.447-0.743-1.36-1.045-2.173-0.743C170.605,295.562,166.142,294.021,164.074,290.247L164.074,290.247z"/>
						<path fill="#C6855B" d="M192.152,364.721c8.097,13.445,25.642,17.705,39.019,9.396c13.045-8.104,17.196-25.081,9.368-38.293
							c-3.621-6.112-9.184-10.35-15.432-12.402c-8.006-2.632-15.017-7.646-20.025-14.425l-7-9.47
							c-3.241-4.383-9.283-5.584-13.954-2.773c-4.67,2.812-6.438,8.713-4.08,13.629l5.361,11.176
							c3.488,7.274,4.694,15.477,3.195,23.404C187.364,351.523,188.437,358.548,192.152,364.721L192.152,364.721z"/>
						<path fill="#C17E4E" d="M240.537,335.824c-3.621-6.112-9.184-10.35-15.432-12.402c-8.006-2.632-15.017-7.646-20.025-14.425
							l-7-9.47c-3.241-4.384-9.283-5.584-13.954-2.773c-1.226,0.737-2.244,1.691-3.047,2.78c1.333,0.718,2.534,1.726,3.489,3.017
							l7,9.471c5.011,6.776,12.021,11.793,20.026,14.424c6.248,2.054,11.81,6.291,15.431,12.402
							c7.829,13.211,3.679,30.188-9.367,38.293c-0.709,0.439-1.433,0.838-2.163,1.209c5.338,0.155,10.784-1.195,15.674-4.232
							C244.215,366.014,248.366,349.036,240.537,335.824z"/>
					</g>
					<path fill="#C6855B" d="M244.155,426.823l0.006-0.003c8.006-4.2,13.781-9.816,15.868-16.764
						c4.542-15.117-9.562-32.623-20.491-44.377c-1.85-1.99-3.608-3.812-5.166-5.435c-7.866-8.159-20.413-21.187-40.133-26.009
						c-2.173-0.531-4.438-0.967-6.789-1.277c-11.949-1.6-22.233,0.367-29.707,2.734c-4.033,1.336-9.843,3.574-16.328,7.283
						c-9.805,5.606-28.804,16.474-30.804,34.275c-0.389,3.457-0.396,9.491,3.282,17.211L244.155,426.823L244.155,426.823z"/>
					<path fill="#C17E4E" d="M239.536,365.682c-1.85-1.992-3.608-3.813-5.166-5.436c-7.866-8.159-20.413-21.186-40.133-26.008
						c-1.888-0.461-3.848-0.846-5.868-1.146c16.227,5.749,26.969,16.892,33.982,24.167c1.559,1.621,3.317,3.443,5.166,5.436
						c10.929,11.753,25.035,29.259,20.492,44.377c-2.087,6.944-7.863,12.562-15.869,16.763l-0.005,0.003l12.018,2.985l0.006-0.003
						c8.006-4.2,13.781-9.816,15.868-16.764C264.571,394.939,250.466,377.434,239.536,365.682L239.536,365.682z"/>
					<path fill="#ECF4FF" d="M246.524,453.781L85.631,413.812c-4.694-1.166-8.295-4.924-9.239-9.64l-3.803-19.004
						c-0.178-0.892,0.635-1.659,1.521-1.438l196.674,48.856c0.886,0.22,1.244,1.28,0.67,1.983L259.2,449.586
						C256.159,453.312,251.219,454.947,246.524,453.781z"/>
					<path fill="#DDEAFB" d="M270.783,432.588l-12.019-2.984c0.886,0.22,1.245,1.278,0.67,1.982L247.182,446.6
						c-3.041,3.728-7.98,5.362-12.676,4.196l12.018,2.985c4.694,1.166,9.635-0.471,12.677-4.196l12.253-15.014
						C272.028,433.868,271.669,432.808,270.783,432.588L270.783,432.588z"/>
					<path fill="#C17E4E" d="M228.048,389.439c4.186,1.93,9.278,4.347,11.913,8.321c6.004,9.067-6.167,10.185-12.503,10.194
						c-10.694,0.018-30.806-5.914-33.793-22.51c-1.617-8.971,2.559-16.739,6.092-21.463c1.162-1.553,3.64-0.789,3.711,1.15
						c0.043,1.162,0.175,2.421,0.44,3.75c0.31,1.555,0.86,4.889,3.229,8.053c3.561,4.76,9.262,7.545,14.602,9.806
						C223.252,387.383,225.55,388.287,228.048,389.439L228.048,389.439z"/>
					<g>
						<path fill="#C17E4E" d="M118.686,371.623c5.02,8.337,12.985,14.221,22.431,16.566l0,0c9.631,2.394,19.58,0.824,28.016-4.414
							c8.155-5.066,13.898-12.979,16.175-22.282c2.275-9.302,0.833-18.974-4.061-27.231c-0.376-0.635-0.778-1.253-1.19-1.859
							c-8.805-0.178-16.433,1.43-22.313,3.293c-4.033,1.336-9.843,3.574-16.328,7.283c-7.183,4.106-19.296,11.037-26.051,21.445
							C116.202,366.918,117.307,369.334,118.686,371.623L118.686,371.623z"/>
						<path fill="#F7F6F7" d="M97.681,292.893c-2.126-3.881-0.859-8.821,2.869-11.203c1.394-0.891,2.943-1.322,4.475-1.336
							c0.76-0.009,1.459-0.43,1.821-1.098c0.73-1.347,1.836-2.513,3.276-3.329c3.85-2.179,8.808-0.987,11.242,2.707
							c2.367,3.593,1.643,8.259-1.426,10.994c-0.646,0.577-0.808,1.525-0.359,2.268l9.666,16.055l-9.344,5.624l-9.666-16.055
							c-0.447-0.743-1.359-1.045-2.173-0.743C104.211,298.209,99.748,296.666,97.681,292.893z"/>
						<path fill="#C6855B" d="M125.759,367.365c8.096,13.447,25.641,17.707,39.018,9.396c13.045-8.103,17.196-25.08,9.367-38.291
							c-3.621-6.113-9.184-10.351-15.431-12.404c-8.007-2.631-15.018-7.646-20.026-14.424l-7.001-9.47
							c-3.24-4.384-9.283-5.584-13.954-2.773c-4.67,2.811-6.437,8.713-4.079,13.629l5.36,11.175
							c3.489,7.274,4.695,15.478,3.196,23.403C120.97,354.171,122.044,361.193,125.759,367.365z"/>
					</g>
				</g>
				<path d="M146.938,276.775c1.638-0.496,2.562-2.224,2.065-3.86c-0.856-2.825-0.895-5.34-0.113-7.477
					c0.553-1.512,1.333-2.389,2.412-3.601c1.06-1.19,2.261-2.539,3.312-4.622c1.89-3.745,2.406-8.217,1.535-13.292
					c-0.289-1.685-1.888-2.815-3.574-2.527c-1.686,0.289-2.816,1.889-2.527,3.574c0.641,3.74,0.318,6.921-0.961,9.458
					c-0.686,1.359-1.483,2.255-2.407,3.292c-1.24,1.392-2.646,2.971-3.604,5.593c-1.254,3.425-1.251,7.26,0.003,11.397
					C143.578,276.363,145.325,277.264,146.938,276.775z M265.885,326.643c1.637-0.494,2.561-2.224,2.065-3.858
					c-0.855-2.825-0.895-5.341-0.113-7.478c0.553-1.512,1.333-2.389,2.413-3.602c1.06-1.188,2.261-2.539,3.312-4.62
					c1.89-3.746,2.406-8.218,1.536-13.292c-0.289-1.685-1.888-2.816-3.574-2.528c-1.686,0.289-2.816,1.889-2.527,3.574
					c0.641,3.74,0.317,6.921-0.961,9.458c-0.687,1.36-1.484,2.256-2.407,3.293c-1.241,1.393-2.646,2.973-3.604,5.594
					c-1.252,3.426-1.252,7.26,0.002,11.396C262.525,326.23,264.272,327.132,265.885,326.643z M271.531,363.55
					c1.637-0.495,2.562-2.224,2.065-3.86c-0.854-2.824-0.894-5.34-0.113-7.476c0.554-1.512,1.333-2.389,2.413-3.603
					c1.061-1.188,2.261-2.537,3.312-4.62c1.89-3.744,2.405-8.218,1.537-13.292c-0.289-1.686-1.891-2.817-3.574-2.528
					c-1.686,0.289-2.817,1.89-2.528,3.574c0.642,3.739,0.317,6.922-0.962,9.457c-0.685,1.358-1.483,2.256-2.407,3.293
					c-1.241,1.394-2.646,2.971-3.604,5.594c-1.252,3.425-1.251,7.259,0.003,11.397C268.171,363.139,269.917,364.038,271.531,363.55
					L271.531,363.55z M134.821,248.509c1.638-0.496,2.562-2.225,2.065-3.86c-0.856-2.826-0.895-5.341-0.113-7.476
					c0.554-1.512,1.333-2.389,2.413-3.601c1.061-1.19,2.262-2.539,3.312-4.622c1.889-3.746,2.405-8.218,1.536-13.292
					c-0.288-1.685-1.89-2.816-3.575-2.527s-2.817,1.889-2.527,3.574c0.641,3.739,0.317,6.921-0.962,9.457
					c-0.685,1.359-1.483,2.256-2.406,3.293c-1.241,1.393-2.646,2.97-3.604,5.592c-1.252,3.425-1.251,7.26,0.002,11.397
					C131.461,248.097,133.208,248.998,134.821,248.509z M242.541,396.055c-3.188-4.812-8.973-7.479-13.197-9.427
					c-2.467-1.137-4.327-1.858-6.4-2.735c-5.122-2.168-10.28-4.734-13.327-8.809c-2.691-3.598-2.929-6.622-3.056-10.062
					c-0.081-2.209-1.498-4.063-3.61-4.725c-2.115-0.662-4.346,0.059-5.674,1.833c-4.028,5.388-8.455,13.897-6.658,23.866
					c1.488,8.27,6.886,15.072,15.608,19.674c3.472,1.832,7.117,3.118,10.561,3.974c4.042,1.005,7.805,1.412,10.677,1.407
					c8.869-0.015,14.387-1.926,16.4-5.683C244.853,403.522,245.426,400.41,242.541,396.055L242.541,396.055z M238.407,402.442
					c-0.445,0.829-3.309,2.404-10.955,2.418c-4.574,0.007-11.793-1.214-18.337-4.667c-4.865-2.566-10.967-7.305-12.405-15.295
					c-1.174-6.526,1.191-12.418,3.929-16.746c0.57,3.414,0.66,6.15,4.019,10.641c3.929,5.251,9.95,8.294,15.873,10.8
					c2.087,0.884,6.223,2.658,6.223,2.658c3.55,1.637,8.412,3.877,10.626,7.222C238.448,401.086,238.601,402.081,238.407,402.442
					L238.407,402.442z M274.605,432.425c-0.473-1.418-1.623-2.48-3.075-2.843l-18.689-4.643c5.157-4.021,8.564-8.706,10.153-13.991
					c1.875-6.241,1.11-13.302-2.271-20.986c-0.688-1.565-2.516-2.274-4.081-1.587c-1.564,0.689-2.274,2.516-1.587,4.081
					c2.771,6.298,3.447,11.921,2.007,16.711c-1.585,5.276-5.723,9.902-12.296,13.768l-96.92-24.075
					c-1.66-0.412-3.339,0.599-3.751,2.257c-0.413,1.659,0.598,3.34,2.258,3.752l120.846,30.02L256.8,447.63
					c-2.273,2.785-6.014,4.021-9.53,3.147L86.377,410.809c-3.517-0.874-6.245-3.717-6.95-7.242L76.2,387.439l36.502,9.067
					l0.003,0.001h0.003l19.624,4.875c1.66,0.412,3.338-0.6,3.75-2.259c0.412-1.658-0.599-3.338-2.258-3.75l-18.121-4.501
					c-1.814-4.562-2.497-9.021-2.019-13.275c0.569-5.057,2.796-9.974,6.618-14.671c0.714,2.089,1.645,4.114,2.801,6.033
					c4.312,7.164,11.143,12.207,19.249,14.22c0.073,0.02,0.146,0.036,0.218,0.055c8.201,1.977,16.667,0.613,23.839-3.842
					c7-4.35,11.932-11.143,13.885-19.125c2.079-8.5,0.508-17.422-4.336-24.723c22.686-1.584,44.017,14.193,56.533,27.211
					c5.033,5.236,11.847,12.793,15.539,17.862c1.002,1.376,2.938,1.69,4.325,0.68c1.382-1.006,1.688-2.942,0.681-4.325
					c-2.637-3.619-5.677-7.308-9.46-11.475c5.398-9.635,5.32-21.645-0.373-31.253c-3.86-6.515-9.944-11.403-17.129-13.767
					c-7.479-2.457-13.875-7.064-18.504-13.326l-7-9.464c-2.291-3.102-5.632-4.969-9.18-5.441l-2.229-3.708
					c3.579-3.85,4.126-9.794,1.182-14.257c-3.334-5.057-10.076-6.681-15.352-3.697c-1.726,0.978-3.161,2.368-4.183,4.044
					c-1.965,0.118-3.867,0.738-5.532,1.805c-5.105,3.265-6.825,9.987-3.916,15.301c2.565,4.681,8.07,6.978,13.153,5.624l2.242,3.723
					c-1.27,3.447-1.097,7.311,0.5,10.638l5.36,11.179c1.036,2.16,1.85,4.397,2.433,6.684c-4.656-0.43-9.375-0.378-14.082,0.146
					c-3.233-2.949-7.067-5.215-11.287-6.602c-7.479-2.458-13.877-7.064-18.503-13.323l-7-9.47c-2.292-3.101-5.633-4.967-9.181-5.439
					l-2.229-3.707c3.577-3.85,4.127-9.792,1.186-14.258c-3.339-5.056-10.081-6.68-15.354-3.696c-1.724,0.977-3.16,2.367-4.182,4.042
					c-1.959,0.119-3.86,0.738-5.532,1.806c-5.106,3.266-6.827,9.986-3.916,15.3c2.566,4.684,8.071,6.979,13.154,5.624l2.23,3.706
					c-1.243,3.356-1.156,7.183,0.511,10.657l5.36,11.175c3.241,6.76,4.288,14.392,2.946,21.491
					c-0.527,2.789-0.667,5.611-0.437,8.394c-6.573,6.646-10.343,13.862-11.199,21.479c-0.447,3.979-0.097,8.063,1.045,12.195
					l-33.724-8.377c-1.453-0.361-2.967,0.041-4.048,1.072c-1.078,1.029-1.547,2.518-1.255,3.979l3.804,19.004
					c1.173,5.863,5.697,10.588,11.528,12.037l160.893,39.968c5.83,1.448,12.04-0.609,15.82-5.241l12.254-15.017
					C274.794,435.373,275.076,433.839,274.605,432.425L274.605,432.425z M182.53,294.103c-0.685,0.411-1.32,0.878-1.913,1.389
					l-1.34-2.224c-1.217-2.006-3.7-2.859-5.895-2.037c-2.482,0.92-5.317-0.142-6.591-2.469c-1.354-2.469-0.553-5.592,1.823-7.111
					c0.851-0.545,1.83-0.839,2.832-0.849c1.888-0.018,3.616-1.059,4.514-2.716c0.477-0.88,1.197-1.609,2.08-2.109
					c2.449-1.386,5.583-0.633,7.132,1.717c1.462,2.217,1.076,5.217-0.903,6.979c-1.764,1.575-2.162,4.174-0.951,6.172l1.334,2.217
					C183.929,293.344,183.219,293.688,182.53,294.103L182.53,294.103z M182.838,309.045c-0.75-1.566-0.934-3.354-0.517-5.034
					c0.482-1.939,1.688-3.574,3.399-4.602c1.166-0.701,2.443-1.045,3.71-1.072c0.113,0.005,0.228,0.003,0.34-0.004
					c2.23,0.054,4.396,1.11,5.819,3.038l7,9.467c5.395,7.299,12.847,12.666,21.549,15.525c5.761,1.895,10.64,5.814,13.735,11.041
					c4.222,7.126,4.594,15.896,1.207,23.283c-9.574-10.086-24.68-25.941-47.494-30.189c-0.679-3.535-1.812-6.982-3.391-10.275
					L182.838,309.045z M116.136,296.749c-0.688,0.414-1.326,0.881-1.913,1.388l-1.339-2.224c-1.217-2.005-3.701-2.859-5.896-2.036
					c-2.479,0.92-5.313-0.142-6.591-2.47c-1.352-2.469-0.552-5.592,1.82-7.109c0.856-0.546,1.838-0.841,2.838-0.851
					c1.885-0.018,3.615-1.059,4.512-2.716c0.479-0.881,1.198-1.61,2.08-2.111c2.451-1.387,5.585-0.631,7.136,1.718
					c1.461,2.216,1.072,5.216-0.907,6.979c-1.758,1.57-2.157,4.166-0.95,6.173l1.334,2.217
					C117.535,295.99,116.824,296.334,116.136,296.749L116.136,296.749z M121.806,322.866l-5.361-11.177
					c-1.695-3.527-0.402-7.657,2.886-9.638c3.287-1.978,7.565-1.161,9.866,1.962l7,9.469c5.394,7.297,12.846,12.664,21.55,15.525
					c5.76,1.895,10.638,5.814,13.733,11.04c3.372,5.688,4.365,12.349,2.8,18.748c-1.564,6.399-5.521,11.847-11.138,15.336
					c-5.752,3.574-12.542,4.669-19.119,3.083c-0.059-0.014-0.117-0.027-0.176-0.042c-6.501-1.614-11.979-5.661-15.437-11.405l0,0
					c-3.182-5.283-4.304-11.528-3.158-17.584C126.839,339.798,125.614,330.807,121.806,322.866z"/>
			</g>
			<g>
				<g>
					<path fill="#64B0D9" d="M1274.912,530.496c-6.203-14.214-19.103-19.056-34.158-18.962c-3.461,0.021-7.021,0.293-10.641,0.781
						c-2.666,0.399-4.967,0.253-6.994-0.292c-6.854,21.777-55.007,29.116-66.371,12.112l-0.026-0.141
						c-1.758,1.323-3.949,2.347-6.71,2.938c-3.463,0.806-6.795,1.762-9.946,2.917c-13.735,5.018-23.96,13.642-25.42,28.196
						c7.236,4.789,65.452,40.742,66.297,43.144l104.955-19.155l-4.611-25.27c-0.491-2.695,0.285-5.35,1.909-7.327L1274.912,530.496z
						"/>
					<path fill="#E6E6E6" d="M1150.012,526.935c-3.463,0.805-6.795,1.762-9.946,2.917l4.16,22.798l8.863,5.447l8.291-8.577
						l-4.658-25.523C1154.964,525.319,1152.773,526.342,1150.012,526.935z"/>
					<path fill="#E6E6E6" d="M1152.117,600.023l20.423-3.727c3.661-0.668,7.214,1.482,8.401,4.895l87.339-15.939l-13.76-37.514
						c-1.317-3.646-4.383-6.381-8.197-5.686l-5.569-30.52c-3.461,0.021-7.021,0.293-10.641,0.781
						c-2.666,0.399-4.967,0.253-6.995-0.292l6.054,33.16l-52.443,9.571C1176.992,555.578,1157.776,596.396,1152.117,600.023z"/>
					<path fill="#FCC368" d="M1213.3,504.676l-25.263-3.18l-24.947,12.198l-0.047,0.141c-1.075,4.042-2.983,7.64-6.321,10.16
						l0.026,0.141c11.364,17.004,59.521,9.664,66.371-12.112C1218.942,510.899,1215.902,508.062,1213.3,504.676z"/>
					<path fill="#FFDDA6" d="M1203.767,432.115c-19.534,0.647-38.679,4.084-57.395,10.476c-5.403,1.842-10.761,3.936-16.09,6.271
						l6.682,36.602c2.365,12.956,13.893,22.678,26.126,28.232c9.991,4.559,20.458,6.319,26.723,4.829
						c7.91-1.91,16.477-6.925,23.487-13.849c9.969-9.855,16.8-23.577,14.209-37.758l-6.324-34.66
						C1215.351,431.973,1209.542,431.916,1203.767,432.115z"/>
					<path fill="#E6E6E6" d="M1165.838,379.619c-8.762,1.627-17.17,7.805-20.126,17.582l-12.314,2.248
						c-17.8,3.25-24.831,24.756-6.274,32.09l4.969,27.221c5.326-2.336,10.687-4.416,16.086-6.273
						c18.719-6.39,37.862-9.824,57.395-10.475c5.779-0.185,11.584-0.142,17.423,0.158l-4.969-27.223
						c14.77-13.416,1.058-31.137-16.743-27.889l-13.239,2.417c-4.228-8.47-13.278-11.458-22.037-9.888L1165.838,379.619z"/>
					<path fill="#C2C7CC" d="M1218.025,414.947c14.77-13.416,1.058-31.135-16.743-27.886l-10.39,1.896
						c15.96-2.912,28.425,9.563,20.203,22.164c-2.644,4.034-4.005,2.441-3.127,7.258l4.25,23.522c3.582,0,7.177,0.08,10.773,0.268
						L1218.025,414.947z"/>
					<path fill="#FCC368" d="M1226.317,460.377c-0.609-0.004-6.067-0.054-11.242-2.823l1.661,9.1
						c2.589,14.179-4.253,27.918-14.225,37.759c-7.01,6.938-15.576,11.939-23.488,13.849c-0.278,0.063-0.557,0.13-0.85,0.183
						c4.514,0.759,8.584,0.813,11.639,0.082c7.91-1.907,16.477-6.924,23.487-13.846c9.969-9.856,16.8-23.58,14.212-37.759
						L1226.317,460.377z"/>
					<path fill="#EDA93B" d="M1223.119,512.023c-4.178-1.124-7.218-3.962-9.819-7.345c-4.125,4.074-8.808,7.497-13.552,10.002
						c3.132,4.055,5.414,5.758,12.683,7.708c0.867,0.234,1.798,0.396,2.766,0.469
						C1218.992,519.827,1221.806,516.18,1223.119,512.023z"/>
					<path fill="#4A83C9" d="M1274.912,530.496c-6.203-14.214-19.103-19.056-34.158-18.962c-3.461,0.021-7.021,0.293-10.641,0.781
						c-2.666,0.399-4.967,0.253-6.994-0.292c-1.313,4.156-4.13,7.804-7.924,10.832c1.312,0.109,2.708,0.059,4.229-0.178
						c1.87-0.237,3.703-0.442,5.534-0.574c1.729-0.126,3.424-0.203,5.106-0.205c4.502-0.025,8.824,0.389,12.828,1.358
						c9.359,2.292,16.99,7.647,21.346,17.616c6.272,14.362,10.036,27.368,12.849,42.771l8.81-1.607l-4.611-25.27
						c-0.491-2.695,0.285-5.349,1.909-7.327L1274.912,530.496z"/>
					<path fill="#C2C7CC" d="M1240.754,511.534c-3.461,0.021-7.021,0.293-10.641,0.781c-2.666,0.399-4.967,0.253-6.994-0.292
						l1.84,10.08c1.729-0.126,3.424-0.203,5.106-0.205c4.502-0.025,8.824,0.389,12.828,1.358L1240.754,511.534z"/>
					<path fill="#FFDDA6" d="M1313.961,557.909c-1.578-8.646-9.94-14.433-18.582-12.854l-6.87,1.254
						c-2.16,0.394-4.009,1.542-5.313,3.131c-1.624,1.979-2.4,4.632-1.909,7.327l5.188,28.428c0.889,4.872,5.6,8.133,10.453,7.248
						l6.873-1.255c8.639-1.577,14.418-9.943,12.841-18.593L1313.961,557.909z"/>
					<path fill="#E6E6E6" d="M1282.449,429.013l-15.962,2.913c-5.962,1.088-9.938,6.858-8.851,12.812l5.976,32.739
						c1.089,5.966,6.844,9.951,12.807,8.863l15.961-2.914c3.352-0.611,6.071-2.705,7.623-5.481c1.198-2.163,1.703-4.722,1.226-7.333
						l-5.975-32.739c-0.476-2.595-1.851-4.825-3.735-6.412C1289.086,429.409,1285.801,428.4,1282.449,429.013z"/>
					<path fill="#C2C7CC" d="M1254.521,547.739c-1.315-3.647-4.382-6.382-8.196-5.687l-9.986,1.822l16.515,44.191l15.431-2.816
						L1254.521,547.739z"/>
					<path fill="#FCC368" d="M1313.961,557.909c-1.578-8.646-9.94-14.433-18.582-12.854l-6.87,1.254
						c-0.912,0.165-1.771,0.468-2.563,0.887c7.239,0.35,13.603,5.672,14.957,13.098l2.682,14.686
						c1.355,7.427-2.722,14.641-9.366,17.536c0.886,0.101,1.8,0.091,2.711-0.073l6.872-1.255c8.64-1.577,14.419-9.943,12.842-18.591
						L1313.961,557.909z"/>
					<path fill="#FCC368" d="M1204.429,549.698c-1.37-4.261-5.768-6.981-10.298-6.155l-15.063,2.746
						c-5.288,0.968-5.276,6.113-5.477,11.445c-0.109,2.662,11.959,3.433,11.483,5.986l12.329-2.25
						c4.938-0.902,8.227-5.665,7.327-10.594C1204.656,550.471,1204.556,550.082,1204.429,549.698z"/>
					<path fill="#FCC368" d="M1087.463,563.01l-15.063,2.748c-4.922,0.898-8.213,5.679-7.312,10.604
						c0.898,4.929,5.663,8.224,10.585,7.323l12.3-2.244l9.659-13.224L1087.463,563.01z"/>
					<path fill="#F78411" d="M1161.38,549.52l-73.917,13.49c-5.287,0.965-5.123,6.477-3.049,11.406
						c1.047,2.48,2.24,4.813,3.56,7.024c7.75,12.933,20.057,21.278,34.188,24.05l19.015,7.555l20.846-14.827
						c12.05-7.759,20.382-20.302,23.055-34.497c0.476-2.555,0.778-5.178,0.875-7.835c0.198-5.345-1.581-10.562-6.883-9.598
						L1161.38,549.52z"/>
					<path fill="#808080" d="M1162.021,598.218l-57.885,10.562c-4.053,0.742-6.745,4.656-6.006,8.7l1.4,7.68
						c0.739,4.041,4.639,6.753,8.693,6.014l78.307-14.292c4.039-0.736,6.745-4.653,6.009-8.695l-1.401-7.679
						c-0.07-0.384-0.17-0.77-0.307-1.121c-1.187-3.41-4.741-5.562-8.388-4.896L1162.021,598.218z"/>
					<path fill="#F74311" d="M1179.067,546.289l-15.329,2.801c5.286-0.965,7.078,4.25,6.881,9.596
						c-0.108,2.659-0.399,5.28-0.89,7.836c-0.504,2.717-1.224,5.358-2.133,7.933c-1.636,4.607-3.889,8.947-6.686,12.913
						c-0.188,0.251-0.369,0.518-0.558,0.77c-3.713,5.058-8.332,9.439-13.677,12.883l15.345-2.8c2.542-1.642,4.914-3.48,7.109-5.521
						c8.192-7.601,13.827-17.769,15.942-28.977c0.478-2.556,0.78-5.178,0.875-7.835c0.046-0.951,0.019-1.891-0.091-2.798
						C1185.412,548.892,1183.429,545.494,1179.067,546.289z"/>
					<path fill="#666666" d="M1190.831,599.387c-1.188-3.411-4.742-5.563-8.389-4.897l-15.344,2.802
						c3.66-0.668,7.197,1.485,8.4,4.896c0.124,0.353,0.223,0.741,0.293,1.121l1.399,7.678c0.739,4.045-1.968,7.961-6.009,8.697
						l15.347-2.801c4.038-0.736,6.744-4.653,6.008-8.695l-1.401-7.679C1191.066,600.125,1190.967,599.738,1190.831,599.387z"/>
					<path fill="#C2C7CC" d="M1291.519,431.462c-2.433-2.054-5.718-3.062-9.067-2.449l-14.688,2.68
						c5.946-1.085,11.721,2.907,12.806,8.859l5.977,32.739c1.089,5.968-2.904,11.729-8.852,12.814l14.687-2.681
						c3.353-0.611,6.07-2.705,7.623-5.481c1.197-2.163,1.703-4.722,1.226-7.333l-5.975-32.739
						C1294.779,435.277,1293.404,433.047,1291.519,431.462z"/>
					<path fill="#808080" d="M1222.992,442.169c-5.838-0.3-11.643-0.343-17.422-0.156c1.277,18.188,19.585,18.372,20.746,18.364
						L1222.992,442.169z"/>
					<path fill="#808080" d="M1148.178,452.487c-5.4,1.855-10.758,3.937-16.087,6.271l3.317,18.182
						C1137.748,476.018,1153.166,469.173,1148.178,452.487z"/>
					<path fill="#666666" d="M1222.992,442.169c-3.598-0.188-7.191-0.268-10.773-0.268l2.855,15.651
						c5.174,2.769,10.633,2.819,11.242,2.822L1222.992,442.169z"/>
				</g>
				<path d="M1090.024,530.516c-1.223,1.721-0.819,4.105,0.903,5.328c0.874,0.622,1.92,0.822,2.896,0.643
					c0.946-0.172,1.831-0.698,2.435-1.545c6.177-8.695,1.999-14.163-0.769-17.779c-2.598-3.395-3.672-4.801-0.331-9.332
					c1.25-1.698,0.888-4.093-0.812-5.343c-1.697-1.256-4.092-0.891-5.342,0.81c-6.746,9.15-2.439,14.781,0.413,18.51
					C1091.908,525.064,1092.941,526.412,1090.024,530.516z"/>
				<path d="M1107.158,506.557c-1.221,1.722-0.818,4.105,0.902,5.33c0.875,0.621,1.921,0.82,2.9,0.644
					c0.943-0.171,1.828-0.7,2.429-1.547c6.183-8.699,1.996-14.165-0.775-17.78c-2.599-3.393-3.675-4.801-0.337-9.328
					c1.252-1.698,0.891-4.093-0.808-5.343c-1.7-1.255-4.096-0.891-5.345,0.809c-6.747,9.153-2.434,14.785,0.422,18.511
					C1109.043,501.106,1110.073,502.453,1107.158,506.557z"/>
				<path d="M1158.518,475.163c0.975-0.177,1.876-0.729,2.477-1.616c1.024-1.312,6.503-2.297,7.908-1.433
					c1.734,1.206,4.116,0.778,5.321-0.953c1.206-1.732,0.779-4.113-0.953-5.32c-3.219-2.241-7.922-1.702-9.875-1.347
					c-0.024,0.004-0.05,0.01-0.075,0.015c-1.877,0.351-6.475,1.515-8.656,4.75c-1.181,1.751-0.723,4.133,1.028,5.312
					C1156.553,475.153,1157.569,475.338,1158.518,475.163z"/>
				<path d="M1188.969,469.606c0.974-0.178,1.877-0.73,2.474-1.619c1.026-1.31,6.505-2.296,7.912-1.431
					c1.73,1.205,4.114,0.779,5.319-0.953c1.207-1.732,0.78-4.114-0.952-5.32c-3.22-2.24-7.921-1.703-9.875-1.348
					c-0.027,0.004-0.052,0.011-0.075,0.015c-1.875,0.352-6.474,1.516-8.656,4.749c-1.18,1.751-0.724,4.135,1.024,5.312
					C1187.005,469.596,1188.02,469.78,1188.969,469.606z"/>
				<path d="M1172.322,424.996c2.076-0.378,3.452-2.368,3.073-4.445l-3.15-17.268c-0.38-2.074-2.369-3.449-4.443-3.072
					c-2.08,0.379-3.454,2.371-3.075,4.445l3.151,17.269C1168.256,424,1170.245,425.376,1172.322,424.996z"/>
				<path d="M1143.694,412.676c-2.074,0.378-3.451,2.368-3.072,4.445l3.149,17.252c0.379,2.076,2.369,3.452,4.444,3.074
					c2.078-0.379,3.453-2.368,3.074-4.444l-3.149-17.253C1147.761,413.673,1145.773,412.297,1143.694,412.676z"/>
				<path d="M1199.273,428.131c2.074-0.381,3.451-2.37,3.07-4.447l-3.148-17.254c-0.378-2.076-2.368-3.452-4.442-3.072
					c-2.078,0.379-3.454,2.369-3.075,4.444l3.149,17.254C1195.203,427.134,1197.193,428.51,1199.273,428.131z"/>
				<path d="M1293.066,487.186c8.043-1.469,13.394-9.212,11.924-17.262l-5.976-32.738c-1.469-8.047-9.207-13.401-17.252-11.935
					l-15.96,2.913c-8.044,1.47-13.394,9.213-11.925,17.26l5.976,32.737c1.469,8.052,9.208,13.404,17.253,11.938l4.22-0.771
					l9.61,52.65l-3.113,0.568c-1.078,0.195-2.098,0.522-3.049,0.959l-6.359-14.541c-7.396-16.911-23.814-23.789-48.809-20.439
					c-0.018,0.002-0.035,0.004-0.055,0.009c-2.007,0.296-3.776,0.248-5.413-0.191c-0.062-0.018-0.124-0.036-0.189-0.052
					c-1.957-0.563-3.729-1.701-5.497-3.493c0.689-0.764,1.367-1.536,2.017-2.332c9.174-11.267,13.01-24.129,10.802-36.231
					l-4.418-24.207c-0.012-0.379-0.081-0.747-0.199-1.093l-4.505-24.68c6.099-6.446,7.658-14.356,4.124-21.505
					c-4.308-8.715-14.864-13.424-25.677-11.449l-10.604,1.936c-4.648-6.949-12.656-10.562-21.974-9.771
					c-11.293,0.965-21.131,8.234-25.176,18.377l-10.131,1.849c-10.967,2.002-19.301,10.257-20.267,20.073
					c-0.771,7.851,3.413,14.62,11.282,18.452l7.913,43.361l0.006,0.034l1.558,8.535c2.313,12.678,11.858,21.241,19.457,26.19
					c1.821,1.188,3.721,2.286,5.668,3.297c-1.033,2.385-2.313,4.131-3.994,5.378c-0.006,0.004-0.01,0.009-0.015,0.011
					c-1.4,1.035-3.077,1.731-5.119,2.176c-0.018,0.002-0.034,0.008-0.054,0.012c-3.77,0.875-7.263,1.904-10.485,3.087
					c-0.012,0.004-0.025,0.009-0.037,0.016c-15.847,5.824-25.026,15.368-27.378,28.472L1071.713,562
					c-7.01,1.278-11.667,8.03-10.386,15.05c1.279,7.011,8.021,11.678,15.029,10.398l9.772-1.785
					c5.354,8.057,12.526,14.438,20.977,18.692l-3.656,0.667c-6.126,1.119-10.2,7.014-9.08,13.144l1.4,7.68
					c1.119,6.13,7.012,10.208,13.137,9.089l22.021-4.021c2.075-0.377,3.451-2.368,3.072-4.442c-0.379-2.077-2.369-3.453-4.445-3.074
					l-22.021,4.019c-1.979,0.361-3.884-0.959-4.247-2.941l-1.4-7.68c-0.363-1.983,0.956-3.891,2.935-4.251l78.306-14.291
					c1.729-0.317,3.398,0.646,4.036,2.218c0.034,0.123,0.077,0.242,0.124,0.359c0.037,0.117,0.064,0.238,0.088,0.362l1.401,7.679
					c0.361,1.983-0.956,3.892-2.936,4.254l-39.159,7.146c-2.076,0.378-3.453,2.37-3.074,4.446c0.381,2.076,2.369,3.451,4.446,3.071
					l39.159-7.146c6.128-1.119,10.199-7.016,9.082-13.146l-0.925-5.058l87.466-15.965c1.534,6.626,8.03,10.955,14.774,9.724
					l6.873-1.255c10.735-1.959,17.874-12.292,15.913-23.036l-2.681-14.686c-1.726-9.455-9.935-16.121-19.199-16.246l-9.676-53.021
					L1293.066,487.186z M1271.41,532.028l7.45,17.041c-1.337,2.478-1.877,5.402-1.334,8.382l3.927,21.511l-10.692,1.95
					l-12.644-34.474c-1.588-4.393-4.812-7.331-8.587-8.108l-4.172-22.857C1258.385,516.39,1266.967,521.863,1271.41,532.028z
					 M1237.583,515.442l4.296,23.539l-9.635,1.757l-4.452-24.389c0.914-0.023,1.862-0.104,2.854-0.251
					C1233.063,515.774,1235.372,515.56,1237.583,515.442z M1206.584,545.422c-2.769-4.212-7.88-6.601-13.14-5.639l-28.991,5.29
					l-2.094-11.459c8.129,3.927,18.958,4.365,28.14,3.052c0.802-0.113,1.615-0.246,2.44-0.396
					c9.921-1.812,21.235-6.229,28.214-13.721l3.57,19.562L1206.584,545.422z M1189.769,556.028c0.107-2.909-0.276-5.487-1.114-7.602
					l6.163-1.126c2.867-0.523,5.63,1.389,6.154,4.263c0.522,2.867-1.387,5.623-4.255,6.146l-7.146,1.304
					C1189.664,558.023,1189.73,557.027,1189.769,556.028z M1219.781,445.861l1.852,10.134c-4.077-0.947-9.559-3.486-11.544-10.245
					C1213.311,445.709,1216.545,445.748,1219.781,445.861z M1145.269,457.584c0.505,6.868-3.561,11.157-7.036,13.537l-1.834-10.051
					C1139.335,459.836,1142.293,458.673,1145.269,457.584z M1140.726,484.776l-1.029-5.639c2.19-1.186,5.125-3.113,7.685-5.955
					c3.305-3.667,6.659-9.653,5.299-18.148c5.527-1.779,11.093-3.307,16.667-4.562c2.06-0.462,3.353-2.506,2.891-4.565
					c-0.463-2.059-2.518-3.343-4.566-2.892c-6.861,1.545-13.71,3.479-20.493,5.786c-0.03,0.009-0.062,0.015-0.093,0.023
					c-0.131,0.039-0.258,0.084-0.381,0.138c-3.933,1.348-7.837,2.817-11.71,4.414l-4.111-22.524
					c-0.236-1.299-1.126-2.384-2.355-2.868c-5.958-2.355-8.969-6.431-8.472-11.475c0.532-5.434,5.522-11.747,14.029-13.301
					l12.313-2.248c1.409-0.258,2.56-1.28,2.975-2.654c2.902-9.624,11.779-14.582,19.296-15.225
					c7.149-0.608,13.115,2.42,15.956,8.104c0.759,1.521,2.432,2.355,4.104,2.051l13.24-2.416c8.719-1.592,15.156,2.68,17.451,7.318
					c2.247,4.554,0.803,9.646-3.963,13.98c-0.979,0.888-1.429,2.216-1.191,3.514l4.112,22.525c-4.208-0.11-8.403-0.091-12.58,0.04
					c-0.16-0.007-0.326-0.012-0.492,0c-0.052,0.003-0.103,0.015-0.153,0.02c-6.504,0.229-12.95,0.747-19.293,1.569
					c-2.085,0.268-3.57,2.188-3.3,4.279c0.271,2.094,2.191,3.571,4.282,3.299c5.076-0.658,10.229-1.104,15.423-1.369
					c1.791,8.794,7.397,13.247,12.087,15.477c3.244,1.539,6.437,2.211,8.738,2.503l0.662,3.632c1.8,9.864-1.472,20.529-9.209,30.029
					c-6.88,8.44-16.699,15.021-25.623,17.171c-0.219,0.051-0.444,0.101-0.681,0.143c-5.273,0.962-14.338-0.553-23.359-4.628
					c-0.141-0.074-0.286-0.14-0.434-0.195c-2.574-1.188-5.143-2.584-7.611-4.193C1150.492,501.804,1142.55,494.778,1140.726,484.776
					z M1189.615,522.47c0.37-0.067,0.734-0.146,1.089-0.231c7.625-1.835,15.495-6.162,22.293-12.079
					c1.403,1.428,3.066,2.802,5.047,3.89c-4.839,8.23-17.331,13.436-28.625,15.052c-11.74,1.681-22.225-0.251-27.479-4.831
					c1.479-1.741,2.554-3.637,3.364-5.487C1174.106,522.197,1183.093,523.66,1189.615,522.47z M1150.85,530.663
					c1.09-0.237,2.1-0.535,3.045-0.878l3.041,16.662l-9.637,1.758l-2.883-15.799C1146.441,531.771,1148.583,531.189,1150.85,530.663
					z M1137.147,535.145l2.635,14.433l-20.332,3.711C1121.776,545.457,1127.629,539.449,1137.147,535.145z M1074.984,579.927
					c-2.859,0.521-5.614-1.382-6.138-4.25c-0.523-2.874,1.377-5.636,4.238-6.157l6.166-1.127c-0.037,2.271,0.513,4.823,1.642,7.507
					l0.001,0.005c0.389,0.923,0.805,1.828,1.233,2.719L1074.984,579.927z M1122.199,601.601
					c-15.475-3.267-27.934-13.681-34.261-28.665c-1.164-2.762-1.236-4.859-0.815-5.643c0.062-0.111,0.203-0.373,1.025-0.521
					l27.171-4.959l0.013-0.002l0.013-0.003l64.41-11.755c0.827-0.15,1.053,0.042,1.147,0.126c0.667,0.576,1.338,2.566,1.226,5.563
					c-0.587,15.783-8.627,30.251-21.554,38.854L1122.199,601.601z M1192.862,595.13c-2.484-3.351-6.734-5.195-11.104-4.399
					l-6.484,1.184c6.327-7.021,10.812-15.586,13.006-24.896l9.81-1.791c6.14-1.12,10.477-6.419,10.61-12.424l38.312-6.992
					c2.51-0.457,3.781,2.847,3.923,3.242l12.197,33.252L1192.862,595.13z M1310.199,558.597l2.682,14.684
					c1.204,6.599-3.177,12.945-9.768,14.146l-6.87,1.254c-2.805,0.511-5.497-1.361-6.012-4.173l-5.188-28.428
					c-0.283-1.554,0.162-3.07,1.091-4.204c0.029-0.033,0.056-0.065,0.084-0.103c0.743-0.863,1.771-1.486,2.974-1.708l6.873-1.253
					C1302.656,547.611,1308.997,552,1310.199,558.597z M1267.37,476.791l-5.977-32.739c-0.711-3.902,1.881-7.655,5.779-8.369
					l15.961-2.912c3.896-0.711,7.647,1.886,8.36,5.789l5.976,32.738c0.711,3.903-1.879,7.656-5.776,8.369l-15.96,2.911
					C1271.835,483.291,1268.084,480.694,1267.37,476.791z"/>
			</g>
		</g>
	</g>
</g>
</svg>
