<?xml version="1.0" encoding="utf-8"?>
<!-- Generator: Adobe Illustrator 16.0.0, SVG Export Plug-In . SVG Version: 6.00 Build 0)  -->
<!DOCTYPE svg PUBLIC "-//W3C//DTD SVG 1.1//EN" "http://www.w3.org/Graphics/SVG/1.1/DTD/svg11.dtd">
<svg version="1.1" xmlns="http://www.w3.org/2000/svg" xmlns:xlink="http://www.w3.org/1999/xlink" x="0px" y="0px" width="160px"
	 height="35px" viewBox="0 0 160 35" enable-background="new 0 0 160 35" xml:space="preserve">
<g id="Layer_1">
</g>
<g id="Layer_2">
	<g>
		<path fill-rule="evenodd" clip-rule="evenodd" fill="#F25C04" d="M21.202,23.433l0.083-0.544c0.899-4.44,3.412-8.263,6.877-10.868
			c1.087-0.817,0.011-2.213-1.036-1.432c-4.044,3.036-6.904,7.578-7.724,12.812C19.222,24.562,20.968,24.924,21.202,23.433
			L21.202,23.433z M59.414,27.286c-11.296,0-15.263-10.041-15.263-11.354c0-1.023,2.719-1.19,5.19-0.833
			c3.384,0.493,6.243,2.278,8.115,5.284c0.25,0.4,2.169,3.944,0.594,3.944c-1.738,0-5.081-1.817-6.688-3.948
			c1.885,1.332,3.752,2.345,5.58,2.657c-1.931-4.694-5.536-6.815-10.817-6.367c2.292,5.399,6.849,9.001,12.634,9.001h1.191
			c-0.441-11.157-9.627-20.07-20.893-20.07c-11.268,0-20.455,8.913-20.897,20.07c10.548,0,21.096,0,31.643,0
			c0.446,0,0.808,0.363,0.808,0.808l0,0c0,0.443-0.362,0.807-0.808,0.807c-11.083,0-22.172,0-33.259,0
			c-0.008-0.256-0.013-0.514-0.013-0.774c0-11.672,8.882-21.273,20.256-22.413c-0.132-0.3-0.205-0.636-0.205-0.986
			c0-1.364,1.107-2.474,2.475-2.474c1.364,0,2.472,1.109,2.472,2.474c0,0.351-0.074,0.687-0.206,0.986
			c11.375,1.139,20.257,10.74,20.257,22.413c0,0.26-0.005,0.519-0.015,0.774H59.414L59.414,27.286z M39.058,2.283
			c-0.461,0-0.831,0.372-0.831,0.829c0,0.458,0.37,0.831,0.831,0.831c0.457,0,0.828-0.373,0.828-0.831
			C39.885,2.655,39.515,2.283,39.058,2.283L39.058,2.283z M6.815,11.25h12.265c0.442,0,0.807,0.364,0.807,0.809l0,0
			c0,0.443-0.364,0.808-0.807,0.808H6.815c-0.447,0-0.811-0.364-0.811-0.808l0,0C6.005,11.614,6.368,11.25,6.815,11.25L6.815,11.25z
			 M13.106,20.211h2.01c0.447,0,0.808,0.364,0.808,0.808l0,0c0,0.445-0.362,0.807-0.808,0.807h-2.01
			c-0.443,0-0.807-0.362-0.807-0.807l0,0C12.3,20.575,12.663,20.211,13.106,20.211L13.106,20.211z M1.037,11.25H3.9
			c0.442,0,0.807,0.364,0.807,0.809l0,0c0,0.443-0.364,0.808-0.807,0.808H1.037c-0.444,0-0.808-0.364-0.808-0.808l0,0
			C0.229,11.614,0.593,11.25,1.037,11.25L1.037,11.25z M9.923,24.691h4.578c0.444,0,0.806,0.364,0.806,0.808l0,0
			c0,0.443-0.362,0.808-0.806,0.808H9.923c-0.442,0-0.808-0.364-0.808-0.808l0,0C9.116,25.056,9.478,24.691,9.923,24.691
			L9.923,24.691z M6.815,20.211H9.97c0.444,0,0.809,0.364,0.809,0.808l0,0c0,0.445-0.365,0.807-0.809,0.807H6.815
			c-0.447,0-0.811-0.362-0.811-0.807l0,0C6.005,20.575,6.368,20.211,6.815,20.211L6.815,20.211z M4.11,15.731
			c-0.444,0-0.809,0.363-0.809,0.806l0,0c0,0.448,0.365,0.81,0.809,0.81h12.265c0.446,0,0.809-0.362,0.809-0.81l0,0
			c0-0.442-0.362-0.806-0.809-0.806H4.11L4.11,15.731z M14.896,29.024h47.057c0.442,0,0.807,0.364,0.807,0.808l0,0
			c0,0.443-0.364,0.807-0.807,0.807H14.896c-0.443,0-0.807-0.364-0.807-0.807l0,0C14.089,29.388,14.453,29.024,14.896,29.024
			L14.896,29.024z M30.62,10.466c-1.105,0.582-1.973-0.946-0.951-1.495c0.87-0.466,1.777-0.872,2.718-1.204
			c0.91-0.326,1.674,1.278,0.583,1.665C32.16,9.721,31.373,10.069,30.62,10.466z"/>
		<g>
			<path fill="#000333" d="M67.305,12.263h7.155v2.208h-4.717v2.774h4.541v2.103h-4.541v5.283h-2.438V12.263z"/>
			<path fill="#000333" d="M75.688,20.567c0-0.848,0.197-1.59,0.592-2.226c0.395-0.636,0.931-1.131,1.608-1.484
				c0.677-0.353,1.446-0.53,2.306-0.53c0.859,0,1.628,0.177,2.306,0.53c0.677,0.354,1.213,0.848,1.608,1.484
				c0.395,0.636,0.592,1.378,0.592,2.226s-0.197,1.59-0.592,2.226c-0.395,0.636-0.931,1.131-1.608,1.484
				c-0.678,0.354-1.446,0.53-2.306,0.53c-0.86,0-1.628-0.177-2.306-0.53c-0.677-0.353-1.213-0.848-1.608-1.484
				S75.688,21.415,75.688,20.567z M78.021,20.567c0,0.695,0.212,1.254,0.636,1.678c0.424,0.424,0.937,0.636,1.537,0.636
				s1.113-0.212,1.537-0.636c0.424-0.424,0.636-0.983,0.636-1.678s-0.212-1.254-0.636-1.679c-0.424-0.424-0.937-0.636-1.537-0.636
				s-1.113,0.212-1.537,0.636C78.233,19.312,78.021,19.872,78.021,20.567z"/>
			<path fill="#000333" d="M85.835,20.567c0-0.848,0.197-1.59,0.592-2.226c0.395-0.636,0.931-1.131,1.608-1.484
				c0.677-0.353,1.446-0.53,2.306-0.53c0.859,0,1.628,0.177,2.306,0.53c0.677,0.354,1.213,0.848,1.608,1.484
				c0.395,0.636,0.592,1.378,0.592,2.226s-0.197,1.59-0.592,2.226c-0.395,0.636-0.931,1.131-1.608,1.484
				c-0.678,0.354-1.446,0.53-2.306,0.53c-0.86,0-1.628-0.177-2.306-0.53c-0.677-0.353-1.213-0.848-1.608-1.484
				S85.835,21.415,85.835,20.567z M88.167,20.567c0,0.695,0.212,1.254,0.636,1.678c0.424,0.424,0.937,0.636,1.537,0.636
				s1.113-0.212,1.537-0.636c0.424-0.424,0.636-0.983,0.636-1.678s-0.212-1.254-0.636-1.679c-0.424-0.424-0.937-0.636-1.537-0.636
				s-1.113,0.212-1.537,0.636C88.379,19.312,88.167,19.872,88.167,20.567z"/>
			<path fill="#000333" d="M96.022,20.567c0-0.907,0.183-1.675,0.548-2.306c0.365-0.63,0.845-1.11,1.44-1.44
				c0.595-0.33,1.233-0.495,1.917-0.495c1.213,0,2.138,0.5,2.773,1.501V10.85h2.297V24.63H102.7v-1.325
				c-0.636,1.001-1.561,1.502-2.773,1.502c-0.684,0-1.322-0.165-1.917-0.495c-0.595-0.33-1.075-0.81-1.44-1.44
				C96.205,22.243,96.022,21.474,96.022,20.567z M98.39,20.567c0,0.73,0.218,1.305,0.653,1.723c0.436,0.418,0.954,0.627,1.555,0.627
				c0.341,0,0.674-0.091,0.998-0.274c0.324-0.182,0.589-0.45,0.795-0.804s0.309-0.777,0.309-1.272s-0.103-0.919-0.309-1.272
				c-0.206-0.354-0.471-0.622-0.795-0.804c-0.324-0.183-0.657-0.274-0.998-0.274c-0.601,0-1.119,0.209-1.555,0.627
				C98.607,19.262,98.39,19.836,98.39,20.567z"/>
			<path fill="#000333" d="M116.348,21.114c0,0.813-0.191,1.479-0.574,1.997c-0.383,0.519-0.921,0.901-1.616,1.148
				c-0.695,0.248-1.502,0.371-2.42,0.371h-4.382V12.263h4.117c0.812,0,1.534,0.115,2.164,0.345s1.122,0.577,1.476,1.042
				c0.353,0.465,0.53,1.045,0.53,1.74c0,0.612-0.165,1.134-0.495,1.563c-0.33,0.43-0.784,0.763-1.36,0.999
				c0.742,0.224,1.354,0.595,1.837,1.113C116.107,19.583,116.348,20.267,116.348,21.114z M111.242,14.277h-1.36v2.933h1.36
				c0.542,0,0.978-0.129,1.308-0.389c0.33-0.259,0.495-0.624,0.495-1.096c0-0.471-0.162-0.83-0.486-1.078
				C112.234,14.401,111.796,14.277,111.242,14.277z M109.882,22.616h1.625c0.636,0,1.169-0.141,1.599-0.424
				c0.43-0.283,0.645-0.748,0.645-1.396c0-0.612-0.215-1.057-0.645-1.334c-0.43-0.276-0.963-0.415-1.599-0.415h-1.625V22.616z"/>
			<path fill="#000333" d="M117.695,20.567c0-0.848,0.197-1.59,0.592-2.226c0.395-0.636,0.931-1.131,1.608-1.484
				c0.677-0.353,1.446-0.53,2.306-0.53c0.859,0,1.628,0.177,2.306,0.53c0.677,0.354,1.213,0.848,1.608,1.484
				c0.395,0.636,0.592,1.378,0.592,2.226s-0.197,1.59-0.592,2.226c-0.395,0.636-0.931,1.131-1.608,1.484
				c-0.678,0.354-1.446,0.53-2.306,0.53c-0.86,0-1.628-0.177-2.306-0.53c-0.677-0.353-1.213-0.848-1.608-1.484
				S117.695,21.415,117.695,20.567z M120.027,20.567c0,0.695,0.212,1.254,0.636,1.678c0.424,0.424,0.937,0.636,1.537,0.636
				s1.113-0.212,1.537-0.636c0.424-0.424,0.636-0.983,0.636-1.678s-0.212-1.254-0.636-1.679c-0.424-0.424-0.937-0.636-1.537-0.636
				s-1.113,0.212-1.537,0.636C120.239,19.312,120.027,19.872,120.027,20.567z"/>
			<path fill="#000333" d="M129.141,18.8l-0.848-1.555c0.424-0.212,0.942-0.424,1.555-0.636c0.612-0.212,1.295-0.318,2.049-0.318
				c0.695,0,1.31,0.101,1.846,0.3c0.536,0.201,0.96,0.495,1.272,0.884c0.312,0.389,0.468,0.854,0.468,1.396v5.76h-2.208v-1.113
				c-0.247,0.424-0.621,0.745-1.122,0.963c-0.501,0.218-1.022,0.327-1.563,0.327c-0.519,0-0.996-0.1-1.431-0.3
				c-0.436-0.2-0.784-0.492-1.042-0.875c-0.259-0.383-0.389-0.851-0.389-1.405c0-0.789,0.276-1.414,0.83-1.873
				c0.554-0.459,1.337-0.689,2.35-0.689c0.518,0,0.978,0.056,1.378,0.168c0.4,0.112,0.73,0.239,0.989,0.38v-0.866
				c0-0.447-0.147-0.771-0.441-0.972s-0.689-0.3-1.184-0.3c-0.377,0-0.736,0.044-1.078,0.132s-0.639,0.188-0.892,0.3
				C129.427,18.621,129.248,18.718,129.141,18.8z M130.025,22.104c0,0.365,0.126,0.645,0.38,0.839
				c0.253,0.194,0.574,0.292,0.963,0.292c0.518,0,0.965-0.162,1.343-0.486c0.376-0.324,0.565-0.78,0.565-1.369
				c-0.518-0.247-1.095-0.371-1.731-0.371c-0.53,0-0.916,0.097-1.157,0.292C130.146,21.494,130.025,21.762,130.025,22.104z"/>
			<path fill="#000333" d="M142.18,18.888c-0.153-0.141-0.309-0.25-0.468-0.327s-0.356-0.115-0.592-0.115
				c-0.436,0-0.766,0.167-0.989,0.503c-0.224,0.335-0.336,0.792-0.336,1.369v4.311h-2.244v-8.127h2.244v0.989
				c0.248-0.365,0.542-0.654,0.883-0.866s0.695-0.318,1.06-0.318c0.294,0,0.574,0.056,0.839,0.168
				c0.265,0.112,0.48,0.268,0.645,0.468L142.18,18.888z"/>
			<path fill="#000333" d="M143.58,20.567c0-0.907,0.183-1.675,0.548-2.306c0.365-0.63,0.845-1.11,1.44-1.44
				c0.595-0.33,1.233-0.495,1.917-0.495c1.213,0,2.138,0.5,2.773,1.501V10.85h2.297V24.63h-2.297v-1.325
				c-0.636,1.001-1.561,1.502-2.773,1.502c-0.684,0-1.322-0.165-1.917-0.495c-0.595-0.33-1.075-0.81-1.44-1.44
				C143.762,22.243,143.58,21.474,143.58,20.567z M145.947,20.567c0,0.73,0.218,1.305,0.653,1.723
				c0.436,0.418,0.954,0.627,1.555,0.627c0.341,0,0.674-0.091,0.998-0.274c0.324-0.182,0.589-0.45,0.795-0.804
				s0.309-0.777,0.309-1.272s-0.103-0.919-0.309-1.272c-0.206-0.354-0.471-0.622-0.795-0.804c-0.324-0.183-0.657-0.274-0.998-0.274
				c-0.601,0-1.119,0.209-1.555,0.627C146.165,19.262,145.947,19.836,145.947,20.567z"/>
			<path fill="#F25C04" d="M154.692,23.588c0-0.389,0.135-0.724,0.406-1.007s0.619-0.424,1.042-0.424
				c0.412,0,0.757,0.142,1.034,0.424c0.276,0.283,0.415,0.618,0.415,1.007s-0.139,0.722-0.415,0.999
				c-0.277,0.276-0.622,0.415-1.034,0.415c-0.424,0-0.771-0.139-1.042-0.415C154.828,24.31,154.692,23.977,154.692,23.588z"/>
		</g>
	</g>
</g>
</svg>
